<?xml version="1.0" encoding="UTF-8" standalone="no"?>
<svg
   xmlns:dc="http://purl.org/dc/elements/1.1/"
   xmlns:cc="http://creativecommons.org/ns#"
   xmlns:rdf="http://www.w3.org/1999/02/22-rdf-syntax-ns#"
   xmlns:svg="http://www.w3.org/2000/svg"
   xmlns="http://www.w3.org/2000/svg"
   xmlns:sodipodi="http://sodipodi.sourceforge.net/DTD/sodipodi-0.dtd"
   xmlns:inkscape="http://www.inkscape.org/namespaces/inkscape"
   width="8.5in"
   height="11in"
   viewBox="0 0 215.9 279.4"
   version="1.1"
   id="svg8"
   inkscape:version="1.0.2 (e86c870879, 2021-01-15)"
   sodipodi:docname="drowner.svg">
  <defs
     id="defs2" />
  <sodipodi:namedview
     id="base"
     pagecolor="#ffffff"
     bordercolor="#666666"
     borderopacity="1.0"
     inkscape:pageopacity="0.0"
     inkscape:pageshadow="2"
     inkscape:zoom="0.7"
     inkscape:cx="1008.1841"
     inkscape:cy="288.11337"
     inkscape:document-units="mm"
     inkscape:current-layer="layer1"
     inkscape:document-rotation="0"
     showgrid="false"
     units="in"
     inkscape:window-width="2560"
     inkscape:window-height="1403"
     inkscape:window-x="1920"
     inkscape:window-y="18"
     inkscape:window-maximized="0" />
  <metadata
     id="metadata5">
    <rdf:RDF>
      <cc:Work
         rdf:about="">
        <dc:format>image/svg+xml</dc:format>
        <dc:type
           rdf:resource="http://purl.org/dc/dcmitype/StillImage" />
        <dc:title></dc:title>
      </cc:Work>
    </rdf:RDF>
  </metadata>
  <g
     inkscape:label="Layer 1"
     inkscape:groupmode="layer"
     id="layer1"
     transform="translate(0,-17.6)">
    <g
       id="g1177"
       transform="translate(73.135903,-68.600058)">
      <path
         id="path947"
         style="fill:#000000;stroke-width:0.0446947"
         d="m 32.170858,161.83127 c -0.895021,0.005 -1.646973,0.12812 -2.359827,0.38523 -0.790597,0.28516 -0.996005,0.45672 -0.697221,0.58235 0.136637,0.0574 0.161736,0.0522 0.416832,-0.0871 0.966559,-0.52806 2.763136,-0.74558 4.031255,-0.48807 1.047573,0.21274 2.361003,0.82351 3.066299,1.42596 1.163068,0.99347 1.504925,2.42549 0.987651,4.13714 -0.392045,1.29726 -1.133959,2.36975 -2.106588,3.04501 -0.754514,0.52382 -2.034464,1.01115 -3.098516,1.17969 -0.635081,0.10063 -1.784276,0.13644 -2.218847,0.0693 -0.930888,-0.14398 -1.457214,-0.37265 -2.090962,-0.9083 -0.597882,-0.50532 -0.893269,-0.98514 -1.162586,-1.88835 -0.106886,-0.35846 -0.120255,-0.47766 -0.122562,-1.09502 -0.003,-0.7936 0.08321,-1.43442 0.285452,-2.123 0.225316,-0.76716 0.740372,-1.63394 1.230415,-2.07071 0.293899,-0.26195 0.905216,-0.57735 1.492732,-0.77011 0.515262,-0.16905 1.058777,-0.19434 1.37733,-0.0641 0.242912,0.0993 0.347846,0.0331 0.156955,-0.0991 -0.457755,-0.31692 -1.05674,-0.31807 -1.936538,-0.004 -0.997027,0.35621 -1.505876,0.7467 -2.040855,1.56624 -0.574349,0.87986 -0.874676,1.92801 -0.938848,3.27607 -0.04325,0.90871 0.105789,1.64975 0.460476,2.28895 0.153129,0.27595 0.162179,0.36829 0.03605,0.36829 -0.03542,0 -0.06497,0.0251 -0.06565,0.0559 -6.76e-4,0.0308 -0.163475,0.15643 -0.36175,0.27934 -0.997296,0.61822 -2.079619,1.55052 -2.643183,2.27672 -0.618883,0.79749 -1.160111,1.68845 -1.70687,2.80992 -0.757964,1.5547 -0.962532,2.14245 -1.029552,2.95841 -0.06357,0.77405 0.126661,1.33253 0.608792,1.78735 0.467618,0.44112 0.783619,0.57384 1.491163,0.62625 0.522554,0.0387 1.611576,-0.10967 2.343595,-0.31941 0.448905,-0.12861 1.515138,-0.67589 1.740824,-0.89355 0.178006,-0.17166 0.418191,-0.34144 1.408058,-0.99489 0.09558,-0.0631 0.306754,-0.25508 0.469295,-0.42669 0.162536,-0.17161 0.472646,-0.49179 0.689103,-0.71154 0.430696,-0.43723 0.493519,-0.56993 0.352405,-0.74418 -0.08295,-0.10244 -0.09575,-0.10509 -0.211688,-0.0431 -0.06786,0.0363 -0.175614,0.14977 -0.239448,0.25211 -0.06384,0.10231 -0.341504,0.42651 -0.616997,0.72036 -0.417547,0.44536 -0.599606,0.59958 -1.094324,0.92671 -0.32641,0.21583 -0.724501,0.49757 -0.884642,0.62608 -0.364561,0.29253 -1.358608,0.83739 -1.743792,0.95587 -0.471015,0.14488 -1.557843,0.31688 -2.002359,0.31688 -0.43374,0 -0.801744,-0.0601 -1.005632,-0.16421 -0.22518,-0.11498 -0.734647,-0.6352 -0.812448,-0.82964 -0.112738,-0.28155 -0.16389,-0.85906 -0.112352,-1.26559 0.04204,-0.33153 0.406459,-1.51304 0.494874,-1.60438 0.0226,-0.0234 0.04112,-0.0713 0.04112,-0.10654 0,-0.0352 0.229275,-0.52892 0.509453,-1.09721 1.096773,-2.22458 2.210279,-3.53971 3.905286,-4.6122 0.288219,-0.18235 0.564253,-0.3319 0.613418,-0.33241 0.04917,-5e-4 0.11894,-0.0195 0.155037,-0.0423 0.04897,-0.031 0.128385,0.0183 0.312862,0.19423 0.13598,0.12967 0.327667,0.2901 0.425996,0.35642 0.09833,0.0664 0.24418,0.16826 0.324036,0.22653 0.352986,0.25757 1.307727,0.5681 1.946142,0.63306 l 0.303523,0.0309 -0.14709,0.12701 c -0.08091,0.0699 -0.250984,0.15848 -0.377899,0.19686 -0.584666,0.17678 -0.866189,0.58021 -1.02283,1.46567 -0.05945,0.33606 -0.04234,0.72214 0.05194,1.16992 0.0993,0.47165 0.598377,1.01563 1.459908,1.5912 0.300411,0.20069 0.666876,0.45006 0.81437,0.55414 0.520447,0.36731 1.217774,0.75832 2.200781,1.23417 0.546683,0.26463 1.09978,0.55046 1.229104,0.63516 0.427672,0.28009 1.043395,0.56813 1.575923,0.7372 0.248404,0.0789 0.267878,0.0947 0.263807,0.2143 -0.0024,0.0711 -0.137817,0.78277 -0.300907,1.58177 -0.395826,1.93928 -0.467146,2.60187 -0.29811,2.77091 0.105716,0.10569 0.17557,0.11196 0.292876,0.0262 0.07693,-0.0562 0.08485,-0.11004 0.0721,-0.48893 -0.0078,-0.23414 0.0088,-0.58273 0.0372,-0.77474 0.107671,-0.72961 0.5257,-2.7227 0.626861,-2.98878 0.04322,-0.11365 0.05616,-0.11788 0.279168,-0.0918 0.808027,0.0946 1.685519,0.0565 2.017109,-0.0876 0.0762,-0.0332 0.310449,-0.22695 0.520536,-0.43071 0.497463,-0.48248 0.702164,-0.83854 0.829647,-1.44315 h 9e-5 c 0.109046,-0.51749 0.109721,-1.26781 0.0016,-1.67605 -0.728443,-2.74743 -1.235017,-3.61612 -2.873209,-4.92715 -0.298463,-0.23887 -0.665706,-0.55542 -0.816027,-0.70342 -0.280152,-0.27584 -0.457974,-0.34367 -0.514513,-0.19633 -0.06031,0.15718 0.07758,0.29479 1.136047,1.13396 1.238718,0.98205 1.844368,1.82817 2.271488,3.17331 0.396125,1.24754 0.585304,2.21921 0.503428,2.58627 -0.02542,0.11402 -0.06853,0.33579 -0.09576,0.49295 -0.06769,0.39067 -0.368938,0.99373 -0.600585,1.20223 -0.101264,0.0911 -0.256745,0.23001 -0.345513,0.30858 -0.459971,0.40717 -1.717046,0.42403 -2.904893,0.039 -0.563037,-0.18249 -0.835845,-0.30712 -1.390427,-0.63532 -0.225658,-0.13355 -0.621466,-0.34502 -0.879578,-0.46999 -1.236743,-0.59883 -1.477536,-0.72066 -1.810137,-0.91572 -0.676422,-0.39671 -2.186974,-1.42388 -2.444501,-1.66226 -0.341495,-0.31611 -0.50813,-0.65972 -0.576231,-1.18843 -0.05855,-0.45456 -0.03985,-0.68499 0.08894,-1.09816 0.169486,-0.54367 0.442169,-0.8338 0.846406,-0.9007 0.455489,-0.0754 0.523259,-0.0948 0.57911,-0.16551 0.08473,-0.10726 0.996339,-0.10184 1.202395,0.007 0.07867,0.0416 0.235506,0.0756 0.348565,0.0756 0.243627,0 0.377143,0.064 0.830697,0.39772 0.523321,0.38514 0.95134,0.76689 1.27729,1.1392 0.160414,0.18322 0.215782,0.19811 0.281264,0.0758 0.094,-0.17565 0.0058,-0.34383 -0.327094,-0.62381 -1.195427,-1.0054 -1.770688,-1.38955 -2.087033,-1.39365 -0.109191,-0.001 -0.279048,-0.0179 -0.377376,-0.0364 l -0.178779,-0.0339 0.134084,-0.0277 c 0.07374,-0.0153 0.25476,-0.0408 0.402252,-0.0566 0.350988,-0.0376 1.08573,-0.21277 1.690458,-0.40304 2.195105,-0.69066 3.505751,-2.12605 4.079614,-4.4679 0.217122,-0.88604 0.117805,-2.07243 -0.230719,-2.75623 -0.134978,-0.26484 -0.564937,-0.81191 -0.872334,-1.10987 -0.543711,-0.527 -1.85357,-1.20347 -2.893455,-1.49438 -0.765148,-0.21405 -1.145008,-0.26463 -1.952342,-0.25979 z m 0.330759,3.47511 c -0.142228,0.002 -0.310248,0.10617 -0.554317,0.3249 -0.122911,0.11016 -0.354206,0.29179 -0.51399,0.40356 -0.159783,0.11173 -0.332467,0.24036 -0.383749,0.28572 -0.09162,0.0811 -0.09664,0.0796 -0.290515,-0.088 -0.108504,-0.0937 -0.255301,-0.21492 -0.326218,-0.26913 -0.151417,-0.11571 -0.429749,-0.13616 -0.429749,-0.0315 0,0.0843 0.09505,0.17637 0.415169,0.40226 0.139349,0.0983 0.253781,0.19924 0.254291,0.22417 5.23e-4,0.025 -0.195137,0.17482 -0.434813,0.33311 -0.526807,0.34791 -0.770983,0.53734 -0.770983,0.59823 0,0.0834 0.19313,0.25242 0.287194,0.25141 0.108865,-0.001 0.316184,-0.14921 0.316184,-0.22574 0,-0.0292 0.199356,-0.18833 0.442929,-0.35372 l 0.442844,-0.30073 0.696871,0.70961 c 0.582229,0.59284 0.712854,0.70497 0.794293,0.68194 0.21904,-0.0619 0.165567,-0.2461 -0.138973,-0.47863 -0.107973,-0.0824 -0.398861,-0.36208 -0.646417,-0.62136 l -0.450088,-0.47139 0.695735,-0.51992 c 0.382677,-0.28597 0.744387,-0.53209 0.803724,-0.54699 0.127232,-0.032 0.138482,-0.11076 0.0296,-0.20637 -0.07762,-0.0682 -0.153678,-0.10292 -0.239013,-0.10147 z m 3.613376,0.26913 c -0.07103,0.006 -0.139921,0.0765 -0.278818,0.24346 -0.09142,0.10992 -0.21976,0.24066 -0.285189,0.29051 -0.06543,0.0498 -0.216466,0.18661 -0.335559,0.30388 l -0.216492,0.21317 -0.324476,-0.30824 c -0.710037,-0.67447 -1.02826,-0.84438 -0.997948,-0.53293 0.01086,0.11196 0.05585,0.17194 0.203048,0.27053 0.103991,0.0696 0.343958,0.27271 0.533196,0.45123 l 0.344023,0.32455 -0.287284,0.2357 c -0.369455,0.30309 -0.705394,0.66763 -0.741476,0.80458 -0.03261,0.12378 0.02843,0.24358 0.134781,0.26451 0.04306,0.008 0.179436,-0.0957 0.330411,-0.25237 0.326856,-0.33918 0.805961,-0.73435 0.854173,-0.70455 0.02034,0.0126 0.174399,0.2167 0.342371,0.45367 0.335891,0.47385 0.482417,0.58528 0.585045,0.44494 0.03418,-0.0467 0.06215,-0.10859 0.06215,-0.1375 0,-0.029 -0.170958,-0.2602 -0.379906,-0.51398 -0.208947,-0.25378 -0.379905,-0.47736 -0.379905,-0.4968 0,-0.0194 0.250389,-0.25188 0.556414,-0.5166 0.619317,-0.53572 0.675887,-0.63993 0.427135,-0.78687 -0.05976,-0.0352 -0.103086,-0.0547 -0.145697,-0.0509 z m 14.116988,0.64562 c -0.517016,-0.004 -1.118491,0.10919 -1.766229,0.33626 -0.85987,0.30144 -1.469917,0.67012 -2.006722,1.21278 -0.130632,0.13207 -0.244137,0.24015 -0.252195,0.24015 -0.0081,0 -0.02712,-0.05 -0.04242,-0.111 -0.04249,-0.16931 -0.280334,-0.41371 -0.460392,-0.47313 -0.23584,-0.0778 -0.719018,-0.0189 -1.122256,0.13687 -0.9029,0.34882 -1.586405,0.92634 -1.930953,1.63163 -0.181278,0.37106 -0.196661,0.42987 -0.198418,0.75971 -0.0017,0.31176 0.01365,0.38341 0.119507,0.55878 0.155507,0.25763 0.512024,0.53634 0.686046,0.53634 0.0754,0 -0.0097,-0.1425 -0.154511,-0.25892 -0.546465,-0.43915 -0.466569,-1.2235 0.209856,-2.05989 0.546216,-0.67539 2.135296,-1.33901 2.451052,-1.02362 0.09885,0.0988 0.09644,0.62266 -0.004,0.86308 -0.09279,0.2221 -0.08817,0.26416 0.03693,0.33111 0.167721,0.0898 0.275958,0.0223 0.410457,-0.25577 0.173639,-0.35898 0.914341,-1.08369 1.374014,-1.34433 0.514611,-0.29179 1.069522,-0.51779 1.618263,-0.65916 0.413883,-0.10666 0.582391,-0.12678 1.072062,-0.1278 0.542855,-0.001 0.597186,0.007 0.826853,0.11981 0.135202,0.0666 0.273754,0.16637 0.307888,0.22164 0.09827,0.15912 0.07209,0.584 -0.05273,0.85453 -0.131063,0.28407 -0.566624,0.74699 -0.824932,0.87678 -0.213221,0.10714 -0.237935,0.19751 -0.08948,0.32796 0.108335,0.0952 0.13403,0.0949 1.307321,-0.006 1.174444,-0.10123 2.62866,0.20027 3.441232,0.71344 0.563403,0.35583 0.871808,0.81089 0.871808,1.28629 0,0.58043 -0.441151,1.07314 -1.387718,1.54983 -0.167193,0.0842 -0.317649,0.17525 -0.334337,0.20226 -0.04702,0.0761 0.155391,0.2614 0.318973,0.29208 0.08078,0.0152 0.323922,0.004 0.540352,-0.0247 0.666583,-0.0887 1.401138,-0.0656 1.894202,0.0596 0.923669,0.23458 1.361825,0.58136 1.517961,1.20143 0.137554,0.54627 -0.334636,1.3623 -1.133866,1.9595 -0.363401,0.27153 -0.99569,0.6218 -1.122431,0.6218 -0.123464,0 -0.158567,0.14725 -0.0632,0.26503 l 0.08729,0.10774 0.48658,-0.0579 c 1.387526,-0.16501 2.856358,0.25601 3.270659,0.93736 0.27689,0.45538 0.273593,1.18228 -0.0081,1.75217 -0.249946,0.50579 -0.540801,0.74397 -1.492999,1.22257 l -0.629217,0.31618 -0.03702,0.61376 c -0.03168,0.52522 -0.02692,0.6291 0.03317,0.72079 0.09842,0.15022 0.325559,0.18188 0.687967,0.0959 0.847036,-0.20085 1.594905,-0.22004 1.826722,-0.0468 0.197815,0.14778 0.265626,0.37686 0.194754,0.6582 -0.08021,0.3184 -0.181625,0.50608 -0.463359,0.85741 -0.251255,0.31332 -0.26298,0.3679 -0.119326,0.5579 0.08408,0.11124 0.08756,0.11172 0.733447,0.10026 1.024653,-0.0181 1.838469,0.14005 2.174153,0.4225 0.182532,0.15359 0.2659,0.3287 0.2659,0.55886 7.6e-5,0.18425 -0.01794,0.20988 -0.438043,0.62084 -0.249961,0.24452 -0.519413,0.46447 -0.627297,0.51207 -0.21369,0.0942 -0.276337,0.23155 -0.184278,0.40356 0.07712,0.14409 0.187968,0.13648 0.462484,-0.0316 0.311332,-0.19063 0.954279,-0.65595 1.053469,-0.76243 0.125321,-0.13453 0.125875,-0.81629 8.45e-4,-1.09956 -0.29014,-0.65748 -1.081921,-0.99075 -2.356685,-0.9921 -0.325713,-3.2e-4 -0.592205,-0.018 -0.592205,-0.0392 0,-0.0212 0.0374,-0.0866 0.08319,-0.14526 0.263663,-0.3376 0.425393,-0.91274 0.358605,-1.27519 -0.07017,-0.38078 -0.37674,-0.71609 -0.749422,-0.81961 -0.258181,-0.0717 -0.741952,-0.0507 -1.381609,0.0602 -0.326812,0.0566 -0.602623,0.0893 -0.612893,0.0728 -0.01026,-0.0166 -0.0064,-0.20398 0.0086,-0.41632 0.03119,-0.44193 0.01313,-0.42031 0.550479,-0.65592 0.674145,-0.29557 1.355089,-0.84141 1.566324,-1.25547 0.179334,-0.35152 0.274942,-0.83246 0.242941,-1.22238 -0.04206,-0.51244 -0.163676,-0.79857 -0.479247,-1.12749 -0.518072,-0.54 -1.298309,-0.82719 -2.532934,-0.93213 -0.298454,-0.0253 -0.358404,-0.0416 -0.290515,-0.0789 0.276721,-0.15195 0.805658,-0.61118 1.041159,-0.90393 0.419437,-0.52139 0.519314,-0.7619 0.519314,-1.25085 0,-0.34784 -0.01655,-0.43598 -0.122298,-0.65129 -0.233454,-0.47536 -0.780326,-0.89536 -1.397322,-1.07312 -0.172075,-0.0496 -0.393315,-0.11425 -0.491643,-0.14377 -0.109227,-0.0328 -0.478714,-0.0537 -0.949762,-0.0537 -0.42404,0 -0.770983,-0.004 -0.770983,-0.007 0,-0.004 0.09553,-0.0671 0.2123,-0.1402 0.339971,-0.21286 0.695681,-0.56012 0.839159,-0.81918 0.116358,-0.21009 0.132949,-0.28462 0.132949,-0.59762 0,-0.30812 -0.01853,-0.39446 -0.134084,-0.62468 -0.193322,-0.38517 -0.715836,-0.89087 -1.164071,-1.1267 -0.963729,-0.50703 -2.373828,-0.76521 -3.551222,-0.65016 -0.23353,0.0228 -0.434649,0.0326 -0.446947,0.0216 -0.0123,-0.0109 0.03852,-0.0732 0.112955,-0.13845 0.410074,-0.3592 0.652003,-0.94861 0.581731,-1.41722 -0.03423,-0.22828 -0.27051,-0.52038 -0.526648,-0.65105 -0.281931,-0.14383 -0.632926,-0.21669 -1.035049,-0.21937 z m -18.341252,2.65035 c -0.193666,0.001 -0.38774,0.0175 -0.577188,0.0502 -0.712657,0.12298 -1.301229,0.37223 -1.92746,0.81621 -0.202726,0.14372 -0.438473,0.30991 -0.523853,0.36934 -0.165116,0.11498 -0.207732,0.28771 -0.09935,0.40261 0.04467,0.0474 0.04449,0.0633 -8.78e-4,0.08 -0.09906,0.0363 -0.194046,0.1553 -0.180177,0.22574 0.0074,0.0374 0.06876,0.10931 0.136444,0.15984 l 0.123084,0.0918 0.204179,-0.0993 c 0.469098,-0.22791 1.619688,-0.43326 1.955394,-0.34901 0.103653,0.0261 0.118312,0.0568 0.146309,0.30798 0.0267,0.23958 0.0527,0.29953 0.184102,0.42425 0.193979,0.18412 0.341632,0.18617 0.583739,0.008 0.186878,-0.13743 0.456812,-0.4884 0.456812,-0.59396 0,-0.0309 0.02685,-0.0929 0.05963,-0.13774 0.05487,-0.0751 0.06813,-0.076 0.167605,-0.0121 0.07116,0.046 0.214728,0.0701 0.420846,0.0707 0.378717,0.001 0.763145,0.0983 1.090569,0.27567 0.301341,0.16322 0.353164,0.16437 0.387409,0.01 0.01491,-0.0676 0.03388,-0.14302 0.04207,-0.16761 0.06566,-0.19681 -0.236261,-0.83982 -0.56453,-1.20221 -0.413976,-0.45702 -1.245544,-0.73522 -2.084769,-0.72996 z m -0.04661,0.36393 c 0.161974,-0.005 0.209444,0.0474 0.236305,0.17109 v 1e-4 c 0.08348,0.38456 0.07124,0.7223 -0.03545,0.97734 -0.191294,0.45732 -0.440123,0.71979 -0.500894,0.52831 -0.01821,-0.0574 -0.0024,-0.12242 0.04164,-0.1711 0.09663,-0.10677 0.08932,-0.24224 -0.01833,-0.33966 -0.07085,-0.0642 -0.08939,-0.13771 -0.08939,-0.35458 0,-0.16759 -0.02524,-0.30976 -0.06521,-0.36683 -0.07055,-0.10074 -0.322709,-0.2241 -0.367163,-0.17965 -0.0385,0.0385 -0.03632,0.23604 0.0057,0.50998 l 0.03597,0.23464 h -0.419188 c -0.36062,6e-5 -0.773715,0.0532 -1.257214,0.16159 -0.178,0.0399 -0.151381,-0.0285 0.08039,-0.20654 0.111797,-0.0859 0.257621,-0.19878 0.324037,-0.25079 0.311317,-0.24379 1.012903,-0.52865 1.593296,-0.64694 0.199897,-0.0408 0.338325,-0.0641 0.435514,-0.067 z m 0.6149,0.0145 0.179915,0.0288 c 0.453509,0.0725 0.837472,0.26945 1.073545,0.55066 0.0784,0.0934 0.190069,0.2865 0.248092,0.42914 0.0923,0.22686 0.09597,0.25631 0.02942,0.23551 -0.31281,-0.0977 -1.242245,-0.2917 -1.405788,-0.29339 -0.01844,-1.7e-4 -0.03352,-0.15989 -0.03352,-0.35494 0,-0.19506 -0.02062,-0.40894 -0.04584,-0.47524 z m 10.440409,1.90171 c -0.02321,3.4e-4 -0.04901,0.004 -0.08005,0.0109 -0.439553,0.0921 -0.692031,0.29626 -1.08507,0.87757 -0.348562,0.51554 -0.400981,0.66933 -0.400941,1.17734 3.2e-5,0.39961 0.01291,0.47131 0.121163,0.67661 0.151305,0.28694 0.416775,0.51807 0.805379,0.70124 0.165441,0.0779 0.300636,0.15182 0.300467,0.16412 -1.69e-4,0.0123 -0.155667,0.0959 -0.345512,0.18576 -0.427711,0.20247 -0.777475,0.52713 -0.932391,0.86553 -0.150785,0.32936 -0.252257,0.9111 -0.218149,1.25048 0.08636,0.8594 0.475252,1.30965 1.331153,1.5411 l 0.212911,0.0576 -0.369867,0.38514 c -0.445014,0.46341 -0.667454,0.7909 -0.893895,1.31606 -0.27957,0.64836 -0.391459,1.09769 -0.38977,1.56579 0.0072,2.01457 2.234375,2.40144 4.874694,0.84684 0.541813,-0.319 0.865606,-0.46862 1.03086,-0.47636 l 0.144733,-0.007 0.07245,0.42459 c 0.149065,0.87428 0.581024,1.34222 1.365196,1.47877 0.32767,0.0571 1.18898,0.0322 1.432415,-0.0414 l 0.139234,-0.0422 0.02348,0.49802 c 0.01942,0.41221 0.04664,0.55752 0.158352,0.84395 0.310571,0.79639 0.796139,1.41793 1.312472,1.67999 0.427003,0.21672 0.95544,0.30063 1.502511,0.23858 0.654675,-0.0743 0.846277,-0.11897 1.259832,-0.29411 0.208202,-0.0882 0.39384,-0.16036 0.412553,-0.16036 0.01871,0 0.04787,0.0554 0.06478,0.12293 0.155775,0.62301 0.785696,1.3818 1.384315,1.66749 0.318918,0.15221 1.128051,0.32835 1.335429,0.29069 0.07374,-0.0134 0.405604,-0.0259 0.737462,-0.028 0.609757,-0.004 0.811033,-0.0367 1.653707,-0.27026 0.184366,-0.0512 0.485826,-0.13285 0.669983,-0.18166 0.184155,-0.0489 0.349763,-0.11221 0.368033,-0.14098 h 8.8e-5 c 0.04346,-0.0683 0.04261,-0.0922 -0.0076,-0.22426 -0.02318,-0.0609 -0.08301,-0.12383 -0.13295,-0.13967 -0.09733,-0.0309 -0.563249,0.0933 -0.674088,0.17974 -0.03687,0.0287 -0.308393,0.11884 -0.603378,0.20025 -0.465597,0.12847 -0.645391,0.15367 -1.363189,0.19065 -1.044892,0.0538 -1.445413,0.007 -1.914278,-0.22365 -0.381801,-0.18785 -0.74059,-0.55503 -0.977437,-1.00013 -0.121393,-0.22814 -0.147527,-0.32652 -0.147527,-0.55528 0,-0.21358 -0.02145,-0.30533 -0.09263,-0.39579 -0.120702,-0.15345 -0.168722,-0.14881 -0.403912,0.0388 -0.481916,0.38452 -1.554249,0.64543 -2.303087,0.56034 -0.682221,-0.0775 -1.110173,-0.36306 -1.474753,-0.98407 -0.284568,-0.48474 -0.418808,-0.94145 -0.417963,-1.42238 8.44e-4,-0.50409 0.04451,-0.58721 0.35747,-0.68011 0.321846,-0.0956 0.905075,-0.38456 1.172277,-0.58094 0.25519,-0.18756 0.303831,-0.31794 0.180349,-0.48362 -0.245837,-0.32983 -0.741067,-0.39865 -1.171142,-0.16271 -0.271182,0.14877 -0.587255,0.51433 -0.700798,0.81054 -0.08161,0.21288 -0.149555,0.23955 -0.84178,0.33084 -0.763703,0.10074 -1.289481,-0.006 -1.626644,-0.32902 -0.213774,-0.20502 -0.263721,-0.32445 -0.322902,-0.77256 -0.07799,-0.59051 -0.251062,-0.8677 -0.541923,-0.8677 -0.18787,0 -0.538712,0.15414 -1.178038,0.51757 -1.203658,0.68422 -2.045445,0.96713 -2.903236,0.97568 -0.899631,0.008 -1.429064,-0.38104 -1.523375,-1.12233 -0.05151,-0.40481 0.109167,-1.06491 0.419712,-1.72486 0.260651,-0.5539 0.447942,-0.81453 0.942866,-1.31211 0.284346,-0.28589 0.451312,-0.48844 0.451312,-0.54751 0,-0.13492 -0.144764,-0.2603 -0.366374,-0.31732 -0.421932,-0.10859 -0.88653,-0.27871 -0.995767,-0.36463 -0.06344,-0.0499 -0.159414,-0.17431 -0.213347,-0.27646 -0.08583,-0.16256 -0.09807,-0.25547 -0.09803,-0.74445 3.8e-5,-0.48049 0.01435,-0.59308 0.102217,-0.8045 0.234099,-0.5631 0.929241,-1.01269 1.895338,-1.22597 0.273344,-0.0603 0.04542,-0.42717 -0.266162,-0.42836 -0.458931,-0.001 -1.204294,-0.30735 -1.391645,-0.57045 -0.129481,-0.18184 -0.19891,-0.49043 -0.166036,-0.73826 0.04093,-0.30853 0.194509,-0.62477 0.507181,-1.04473 0.306247,-0.41134 0.586329,-0.61099 0.863516,-0.61543 0.261225,-0.004 0.303122,-0.0814 0.135219,-0.24931 -0.09003,-0.09 -0.135861,-0.12143 -0.20549,-0.12054 z m -14.560265,3.06307 c -0.06171,-0.004 -0.13909,0.0218 -0.302651,0.0845 -0.159783,0.0613 -0.401135,0.15212 -0.536336,0.202 -0.697416,0.25728 -1.555734,0.77086 -2.053776,1.22894 -0.281748,0.25912 -0.286896,0.26795 -0.244074,0.41788 0.03002,0.10509 0.07401,0.15751 0.140105,0.16708 0.09643,0.0139 0.141169,-0.0232 0.35206,-0.29192 0.06211,-0.0791 0.297761,-0.272 0.523589,-0.42853 0.798973,-0.55379 1.719938,-0.95659 2.075512,-0.90786 0.154,0.0211 0.208738,0.008 0.280039,-0.0624 0.04876,-0.0487 0.08861,-0.10002 0.08861,-0.1139 0,-0.0748 -0.106959,-0.205 -0.21361,-0.25995 -0.04107,-0.0211 -0.07244,-0.0337 -0.109469,-0.0358 z m 38.959134,6.57824 c -0.03834,0 -0.05708,0.0205 -0.04164,0.0455 0.01544,0.025 0.04686,0.0339 0.06975,0.0198 0.06199,-0.0384 0.0504,-0.0653 -0.02811,-0.0653 z m -41.046258,0.2947 c -0.04161,-9.3e-4 -0.08117,0.005 -0.116707,0.0188 -0.09319,0.0355 -0.110168,0.0712 -0.110337,0.2329 -1.44e-4,0.10509 -0.02095,0.31167 -0.04626,0.45917 -0.06945,0.40449 -0.25901,1.59575 -0.334254,2.10065 -0.03663,0.24582 -0.147529,0.80897 -0.246518,1.25145 -0.230362,1.02972 -0.258287,1.27867 -0.160011,1.42865 0.05079,0.0775 0.114572,0.1133 0.201827,0.1133 0.184419,0 0.236972,-0.088 0.204353,-0.34228 -0.02057,-0.16048 0.0193,-0.45314 0.154251,-1.13266 0.225199,-1.13394 0.26052,-1.32787 0.313734,-1.72074 0.06083,-0.44909 0.214445,-1.32311 0.310245,-1.76544 0.118336,-0.54636 0.117081,-0.56444 -0.0412,-0.61961 -0.04383,-0.0153 -0.0875,-0.0234 -0.12911,-0.0242 z m 25.225371,1.8434 c 0.113426,-0.002 0.21682,0.006 0.22976,0.0194 0.06589,0.0659 -0.902852,0.59735 -1.018552,0.55878 -0.06031,-0.0201 0.254579,-0.37127 0.430274,-0.47986 0.09268,-0.0573 0.232992,-0.0958 0.358518,-0.0983 z m 15.902769,4.63236 c -0.03004,-0.001 -0.05622,0.004 -0.07359,0.0185 -0.04906,0.0407 -1.023245,0.0922 -3.469517,0.18332 -0.651423,0.0242 -1.345309,0.0659 -1.541966,0.0924 -0.196656,0.0265 -0.458122,0.0619 -0.581031,0.0785 -0.195419,0.0264 -0.225079,0.0443 -0.236482,0.14193 -0.0071,0.0614 -0.03528,0.15626 -0.0625,0.21065 -0.03803,0.076 -0.0325,0.15355 0.02383,0.33521 0.113945,0.36738 0.178432,1.26958 0.146305,2.04644 -0.03977,0.96172 -0.05409,1.03832 -0.21099,1.12836 -0.158284,0.0908 -0.16312,0.16534 -0.01946,0.30029 0.09469,0.0889 0.127322,0.0965 0.234646,0.0545 0.392148,-0.15335 1.862552,-0.36379 3.163897,-0.45279 1.033043,-0.0707 2.284668,0.0548 2.71477,0.2721 0.139926,0.0707 0.182246,0.0752 0.259962,0.0279 0.100782,-0.0614 0.100456,-0.10714 -0.0048,-0.6376 -0.02929,-0.1475 -0.05589,-0.64026 -0.05901,-1.09502 -0.0049,-0.72386 0.0075,-0.88253 0.09934,-1.2738 0.05774,-0.24583 0.132097,-0.48717 0.165248,-0.53634 0.113305,-0.16804 0.07847,-0.33283 -0.107454,-0.50797 -0.09484,-0.0893 -0.184857,-0.19789 -0.199992,-0.24128 -0.02609,-0.0748 -0.150974,-0.14121 -0.241106,-0.14544 z m -0.405308,0.47821 c 0.311622,-0.004 0.345372,0.0154 0.421893,0.0873 0.125963,0.11836 0.126141,0.20354 0.0012,0.70901 -0.0836,0.33827 -0.09349,0.50379 -0.08991,1.50975 0.0036,1.02309 -0.0029,1.12772 -0.06862,1.10811 -0.341945,-0.10195 -0.804509,-0.13696 -1.771028,-0.13416 -0.936306,0.002 -1.211884,0.0212 -2.167696,0.14587 -0.60226,0.0785 -1.155353,0.14746 -1.229104,0.15329 l -0.134084,0.0109 -0.0088,-1.11737 c -0.0063,-0.7846 -0.03056,-1.24823 -0.08162,-1.55681 -0.03998,-0.24169 -0.0622,-0.46684 -0.04932,-0.50037 0.04096,-0.10678 0.447603,-0.19154 1.152985,-0.2404 0.748368,-0.0519 2.452999,-0.12944 3.607964,-0.1643 0.177496,-0.005 0.312258,-0.01 0.416133,-0.0109 z m -1.837373,0.48483 c -0.100456,0.001 -0.147607,0.0597 -0.35197,0.43839 -0.129781,0.24044 -0.295709,0.50257 -0.368731,0.58252 -0.07302,0.08 -0.132775,0.17656 -0.132775,0.21465 0,0.0381 -0.08045,0.16531 -0.17878,0.28275 -0.199476,0.23825 -0.221524,0.35951 -0.08939,0.49164 0.157634,0.15764 0.290112,0.11715 0.401818,-0.12291 0.160548,-0.34495 0.291521,-0.48699 0.521146,-0.56523 0.115694,-0.0394 0.226928,-0.0717 0.247131,-0.0717 0.02021,0 0.03667,0.18835 0.03667,0.41857 0,0.35578 0.01397,0.43624 0.09271,0.53633 0.06288,0.08 0.135183,0.11776 0.225219,0.11776 0.251812,0 0.843784,-0.36419 0.961287,-0.59142 0.09824,-0.18995 0.06217,-0.61347 -0.07717,-0.90628 -0.05837,-0.12268 -0.112629,-0.23681 -0.120556,-0.25369 -0.008,-0.0169 0.04428,-0.008 0.115923,0.0185 0.07164,0.027 0.161862,0.037 0.200513,0.0222 0.112847,-0.0433 0.001,-0.33831 -0.167081,-0.44084 -0.243957,-0.14876 -0.535388,-0.0754 -0.584261,0.14709 -0.02189,0.0997 0.0128,0.20339 0.154249,0.4611 0.225779,0.41138 0.243384,0.6341 0.06328,0.8011 -0.13436,0.12459 -0.403898,0.2797 -0.432194,0.2487 -0.01026,-0.0109 -0.03275,-0.15617 -0.05002,-0.32212 l -0.03142,-0.30169 0.137314,-0.0782 c 0.106078,-0.0603 0.137661,-0.10931 0.137661,-0.21449 3.38e-4,-0.12858 -0.0082,-0.13529 -0.150842,-0.1186 -0.182489,0.0214 -0.202932,-0.007 -0.25202,-0.35467 -0.04328,-0.30624 -0.137856,-0.4413 -0.307714,-0.43944 z m -2.120991,0.53416 c -0.08587,-0.001 -0.191615,0.0356 -0.319061,0.11027 -0.405789,0.23781 -0.627176,1.02006 -0.399198,1.41041 0.118312,0.20259 0.351561,0.35739 0.538345,0.35739 0.08157,0 0.219454,0.0339 0.306403,0.0754 0.151404,0.0722 0.160855,0.0717 0.223561,-0.0109 0.03602,-0.0477 0.06602,-0.11438 0.06687,-0.14831 0.0018,-0.0772 0.162201,-0.34887 0.293484,-0.49697 0.05447,-0.0614 0.110023,-0.14191 0.123432,-0.17878 0.03717,-0.1022 0.03727,-0.10159 -0.06101,-0.26276 -0.09081,-0.14896 -0.09544,-0.1507 -0.334161,-0.12265 -0.666735,0.0784 -0.79772,0.15519 -0.685348,0.40182 0.06177,0.13559 0.176699,0.18247 0.344201,0.14046 l 0.119676,-0.03 -0.108334,0.11534 c -0.223645,0.23813 -0.620615,0.0877 -0.571253,-0.21649 0.03715,-0.22892 0.207528,-0.54996 0.336869,-0.63472 0.06561,-0.0429 0.184611,-0.0737 0.264502,-0.0683 0.160342,0.0109 0.178295,-0.0345 0.09776,-0.24627 -0.04879,-0.12833 -0.126341,-0.19301 -0.236741,-0.19466 z m 2.106674,0.13696 c 0.0058,6e-4 0.01001,0.0333 0.01001,0.08 0,0.0595 -0.02788,0.0968 -0.07245,0.0968 -0.06208,0 -0.06391,-0.0109 -0.01266,-0.0782 0.03293,-0.0429 0.06549,-0.0865 0.07245,-0.0968 8.44e-4,-0.001 0.0018,-0.002 0.0027,-0.001 z m 3.630312,11.93148 c -0.02458,0 -0.04469,0.0202 -0.04469,0.0446 0,0.0246 0.02011,0.0446 0.04469,0.0446 0.02458,0 0.04469,-0.0202 0.04469,-0.0446 0,-0.0246 -0.02011,-0.0446 -0.04469,-0.0446 z" />
      <g
         id="g1136"
         transform="translate(-3.8309769,-2.6417269)">
        <text
           xml:space="preserve"
           style="font-style:normal;font-weight:normal;font-size:24.8407px;line-height:1.25;font-family:sans-serif;fill:#000000;fill-opacity:1;stroke:none;stroke-width:0.129379"
           x="7.1539917"
           y="187.93474"
           id="text1071"><tspan
             sodipodi:role="line"
             x="7.1539917"
             y="187.93474"
             style="font-style:normal;font-variant:normal;font-weight:normal;font-stretch:normal;font-size:24.8407px;font-family:'Liberation Sans';-inkscape-font-specification:'Liberation Sans';stroke-width:0.129379"
             id="tspan1075">1</tspan></text>
      </g>
      <path
         id="path949"
         style="fill:#000000;stroke-width:0.0447625"
         d="m 46.877452,204.12313 c -0.174973,-0.001 -0.406697,0.0973 -0.575793,0.25503 -0.174815,0.16304 -0.183425,0.18333 -0.17363,0.40845 0.0124,0.28498 0.119253,0.42118 0.38695,0.49326 0.243007,0.0654 0.718165,0.0149 1.153686,-0.12266 0.378407,-0.11951 0.417038,-0.17654 0.297426,-0.43904 -0.0609,-0.13367 -0.125236,-0.15799 -0.522288,-0.19725 l -0.299088,-0.0296 -0.02238,-0.1557 c -0.01657,-0.11515 -0.05146,-0.16592 -0.134288,-0.19495 -0.03287,-0.0121 -0.07022,-0.0173 -0.110589,-0.0175 z m -0.06758,0.39202 c 0.02975,0.004 0.02948,0.0314 6.77e-4,0.0852 -0.07759,0.14498 -0.05358,0.18183 0.121522,0.18648 0.09233,0.002 0.218217,0.0196 0.279766,0.0379 0.09179,0.0274 0.06517,0.0396 -0.148276,0.0682 -0.245374,0.0327 -0.593134,0.0133 -0.642325,-0.0359 -0.04443,-0.0445 0.08008,-0.2097 0.207813,-0.27574 0.09127,-0.0472 0.151043,-0.0692 0.180799,-0.0662 z m -0.784567,0.67003 c -0.129558,0 -0.164325,0.0924 -0.132714,0.3526 0.01382,0.11383 -0.0021,0.35802 -0.03524,0.54265 -0.07251,0.4035 -0.04716,0.55373 0.09696,0.57449 0.179395,0.0259 0.186774,0.004 0.27146,-0.84306 0.01848,-0.18465 0.03642,-0.35153 0.03986,-0.37087 0.01506,-0.0845 -0.145936,-0.25581 -0.240336,-0.25581 z m 1.745387,0.0543 c -0.126292,0.004 -0.188791,0.32992 -0.119072,0.77835 0.06861,0.4413 0.121707,0.53725 0.361684,0.65308 0.113163,0.0546 0.376932,0.2068 0.586197,0.33818 0.209266,0.13137 0.491267,0.26946 0.626675,0.30696 1.129182,0.31261 1.320751,0.40735 1.803966,0.89139 0.729333,0.7306 1.060397,1.269 1.370938,2.22938 0.249296,0.77098 0.305049,1.07831 0.362559,1.99998 0.05804,0.93014 0.02749,1.95889 -0.101768,3.42433 -0.106191,1.20401 -0.108789,1.30485 -0.04091,1.58907 0.02645,0.1108 0.049,0.42866 0.05,0.7064 0.0025,0.64641 -0.03391,0.67146 -0.41283,0.28423 -0.405912,-0.4148 -0.575245,-0.41997 -0.596688,-0.0184 -0.01357,0.2541 -0.142517,0.89522 -0.202654,1.0076 -0.09198,0.17186 -0.325919,0.0656 -0.554025,-0.25145 -0.06506,-0.0904 -0.131489,-0.1265 -0.243133,-0.13192 l -0.15361,-0.007 -0.07781,0.3804 c -0.144068,0.70431 -0.347456,1.02953 -0.643899,1.02953 -0.17102,0 -0.548233,-0.16873 -0.649231,-0.29043 -0.08011,-0.0966 -0.28687,-0.20195 -0.396042,-0.20195 -0.06753,0 -0.124924,0.094 -0.259572,0.42471 -0.0951,0.23354 -0.190635,0.42483 -0.212272,0.42516 -0.02163,3.4e-4 -0.117332,-0.0698 -0.21271,-0.15597 -0.240616,-0.21737 -0.390779,-0.21155 -0.576054,0.0224 -0.140189,0.177 -0.256999,0.24048 -0.208163,0.11323 0.01387,-0.0361 0.0036,-0.079 -0.02273,-0.0953 -0.03078,-0.019 -0.03744,-0.12174 -0.01871,-0.28729 0.03462,-0.30599 -0.04919,-0.52689 -0.24357,-0.64171 -0.207032,-0.1223 -0.443539,-0.0926 -0.838947,0.10537 -0.196754,0.0985 -0.367327,0.17897 -0.379083,0.17897 -0.01172,0 -0.03398,-0.14923 -0.0494,-0.33161 -0.03428,-0.40547 -0.09225,-0.54152 -0.260268,-0.61112 -0.237728,-0.0985 -0.498643,-0.0255 -1.225288,0.34254 -0.498549,0.25249 -0.705601,0.33687 -0.74068,0.3018 -0.05682,-0.0568 -0.128656,-0.34206 -0.130179,-0.51687 -5.07e-4,-0.0668 -0.04293,-0.23321 -0.09407,-0.3699 -0.154047,-0.41174 -0.429942,-0.4778 -1.079546,-0.25852 -0.260346,0.0878 -0.369527,0.10767 -0.382317,0.0694 -0.0098,-0.0296 -0.06264,-0.12011 -0.117332,-0.20125 -0.132667,-0.19696 -0.397113,-0.25965 -0.66016,-0.15633 l -0.182197,0.0717 0.03086,-0.22434 c 0.02463,-0.17904 0.01541,-0.24142 -0.04556,-0.30879 -0.05954,-0.0658 -0.07035,-0.13192 -0.04887,-0.29953 0.01515,-0.1183 0.03607,-0.43672 0.04651,-0.70754 0.01039,-0.27082 0.03995,-0.58303 0.06556,-0.69382 0.07557,-0.32672 0.05817,-0.56626 -0.0578,-0.79603 -0.163547,-0.32415 -0.210324,-0.8348 -0.164711,-1.80011 0.04267,-0.903 0.0613,-0.98242 0.439931,-1.88003 0.364418,-0.86391 1.137955,-2.35242 1.470169,-2.82904 0.172886,-0.24802 0.723908,-0.94087 0.942287,-1.18481 0.173949,-0.19431 0.517643,-0.44391 0.817353,-0.59354 0.323854,-0.16168 0.855324,-0.28984 1.050259,-0.25327 0.190885,0.0358 0.38564,-0.0356 0.38564,-0.14164 0,-0.0443 -0.03136,-0.12547 -0.06967,-0.18019 -0.08721,-0.12451 -0.367414,-0.13334 -0.839124,-0.0265 -0.594755,0.13474 -1.201066,0.47602 -1.630074,0.91754 -0.805707,0.82922 -1.747624,2.37062 -2.430988,3.97811 -0.510174,1.20008 -0.493313,1.12474 -0.539162,2.41078 -0.03851,1.08018 -0.03613,1.14834 0.05027,1.41002 0.131437,0.39807 0.163121,1.15131 0.06889,1.63979 -0.07719,0.40013 -0.06228,0.69011 0.04659,0.90468 0.0832,0.16398 0.07724,0.28864 -0.02824,0.5952 -0.112027,0.32563 -0.112027,0.40274 0,0.51478 0.121771,0.12176 0.282633,0.1108 0.625277,-0.0427 0.159236,-0.0713 0.302685,-0.1214 0.318758,-0.11153 0.01607,0.01 0.04052,0.0744 0.05429,0.1433 0.01378,0.0689 0.06816,0.18011 0.120911,0.24716 0.132936,0.169 0.338753,0.15996 0.783694,-0.0343 0.364092,-0.15894 0.532373,-0.19178 0.580776,-0.11346 0.01485,0.024 0.05427,0.21206 0.08761,0.41798 0.09385,0.57977 0.318849,0.9261 0.601672,0.92577 0.06438,-6e-5 0.298355,-0.10295 0.519928,-0.22863 0.561826,-0.31863 1.010691,-0.53222 1.117839,-0.53209 0.08017,1.1e-4 0.0922,0.0328 0.103158,0.27978 0.01971,0.44359 0.09316,0.74013 0.20213,0.81647 0.138985,0.0974 0.269866,0.0833 0.387213,-0.0416 0.113199,-0.12047 0.704401,-0.42803 0.822863,-0.42803 0.0889,0 0.103907,0.22026 0.02508,0.36753 -0.03673,0.0686 -0.03625,0.1774 0.0018,0.41346 0.03289,0.20388 0.03672,0.36013 0.01051,0.42987 -0.06571,0.17472 0.12663,0.48481 0.303196,0.4887 0.09343,0.002 0.27146,-0.17933 0.27146,-0.2766 0,-0.10356 0.383283,-0.48295 0.487842,-0.48295 0.0773,0 0.354871,0.18355 0.408283,0.26997 0.01582,0.0256 0.100536,0.0581 0.18823,0.0724 l 0.159466,0.0259 0.0507,-0.24007 c 0.05424,-0.2568 0.255195,-0.71017 0.314823,-0.71017 0.01983,0 0.153459,0.0707 0.29699,0.1571 0.518894,0.31247 0.827271,0.3197 1.149662,0.0267 0.08871,-0.0806 0.162567,-0.23764 0.259308,-0.55113 0.0744,-0.24109 0.14781,-0.43837 0.163051,-0.43837 0.01526,0 0.125197,0.0626 0.244359,0.13911 0.264273,0.16958 0.49754,0.23005 0.599573,0.15544 0.09283,-0.0679 0.213607,-0.40934 0.286673,-0.81053 0.03126,-0.17165 0.06459,-0.33898 0.07405,-0.37184 0.01148,-0.0397 0.08558,5.1e-4 0.222239,0.12084 0.221361,0.19486 0.554641,0.34664 0.666716,0.30364 0.134626,-0.0517 0.168244,-0.25587 0.142333,-0.86377 -0.01654,-0.38824 -0.0079,-0.63409 0.02553,-0.72251 0.0421,-0.11153 0.03782,-0.14682 -0.02527,-0.2099 -0.06667,-0.0667 -0.07309,-0.15763 -0.05368,-0.7545 0.01214,-0.37332 0.03453,-0.78797 0.04983,-0.9213 0.0153,-0.13333 0.0428,-0.62675 0.06111,-1.0966 0.04879,-1.25189 0.04876,-1.23516 0.003,-2.0853 -0.05203,-0.96616 -0.132121,-1.43422 -0.362998,-2.12238 -0.352841,-1.05168 -0.536896,-1.39407 -1.113555,-2.07087 -0.619897,-0.72756 -0.985716,-0.99306 -1.64878,-1.1967 -0.213931,-0.0657 -0.509823,-0.15723 -0.657539,-0.20344 -0.354866,-0.11105 -1.216163,-0.6491 -1.300736,-0.81264 -0.038,-0.0735 -0.06451,-0.25245 -0.06451,-0.43538 0,-0.23516 -0.02004,-0.33538 -0.08253,-0.41257 -0.04385,-0.0541 -0.08423,-0.0785 -0.119604,-0.0776 z m 2.265666,4.37946 c -0.09222,-3e-5 -0.209312,0.0314 -0.295415,0.0903 -0.07385,0.0505 -0.180116,0.11057 -0.23614,0.13333 -0.05602,0.0228 -0.114504,0.077 -0.130004,0.12036 -0.01549,0.0434 -0.0787,0.12099 -0.140406,0.17231 -0.140229,0.1166 -0.111037,0.16439 0.182896,0.29953 0.573406,0.2636 0.823134,0.65322 0.953126,1.48721 0.08086,0.51872 0.07962,0.99233 -0.0048,1.88002 -0.09238,0.97126 -0.09593,2.33839 -0.0063,2.42802 0.07921,0.0793 0.323797,0.0394 0.36151,-0.059 0.01371,-0.0358 0.0054,-0.21864 -0.01835,-0.40636 -0.04266,-0.33647 10e-4,-1.53995 0.089,-2.45512 0.08521,-0.88613 -0.03941,-1.85499 -0.306694,-2.38448 -0.124912,-0.24744 -0.420816,-0.56876 -0.623789,-0.67738 -0.09094,-0.0487 -0.08651,-0.0587 0.124144,-0.27959 0.122608,-0.12854 0.208141,-0.25591 0.194963,-0.29026 -0.01535,-0.04 -0.07201,-0.059 -0.14373,-0.059 z m -2.067557,0.90068 c -0.04687,-0.004 -0.08591,0.0121 -0.139882,0.0471 -0.101973,0.0668 -0.111725,0.11153 -0.167423,0.76794 -0.05508,0.64908 -0.05224,0.76407 0.04048,1.67169 0.168528,1.64969 0.301954,2.11556 0.732026,2.55601 0.294702,0.30181 0.444152,0.38237 0.6411,0.34542 0.233464,-0.0437 0.203623,-0.18861 -0.07834,-0.37995 -0.492605,-0.33425 -0.690643,-0.7881 -0.845679,-1.93824 -0.161483,-1.19779 -0.161372,-2.61984 1.69e-4,-2.7814 0.02635,-0.0263 0.113477,0.007 0.232555,0.0882 0.476159,0.32594 0.806391,0.78838 1.029887,1.4422 l 0.148277,0.4339 -8.7e-5,0.94 c -6.3e-5,0.68244 -0.02345,1.10562 -0.08532,1.54431 -0.04688,0.33237 -0.08712,0.68488 -0.08944,0.78335 -0.0041,0.17553 -0.0012,0.17887 0.146177,0.17188 0.0827,-0.004 0.170513,-0.0272 0.195049,-0.0517 0.02454,-0.0245 0.09185,-0.4444 0.149586,-0.93295 v -9e-5 c 0.08279,-0.70044 0.102095,-1.06335 0.09136,-1.71636 -0.01251,-0.76103 -0.02327,-0.85665 -0.133675,-1.18078 -0.252069,-0.74009 -0.549978,-1.19794 -1.035921,-1.59223 -0.282516,-0.2292 -0.30166,-0.23742 -0.449461,-0.19207 -0.109683,0.0337 -0.191808,0.0334 -0.2837,-0.001 -0.03867,-0.0146 -0.06961,-0.0231 -0.09774,-0.025 z m -0.342451,7.05281 c -0.07099,0.004 -0.08975,0.073 -0.175201,0.48208 -0.113381,0.54284 -0.12805,0.81037 -0.05823,1.0618 0.04001,0.14404 0.181737,0.30345 0.2698,0.30345 0.01543,0 0.04055,-0.20646 0.05578,-0.45881 0.01523,-0.25236 0.06708,-0.58975 0.115229,-0.74978 0.04815,-0.16002 0.08904,-0.33319 0.09093,-0.38478 0.0042,-0.11539 -0.121948,-0.23567 -0.264291,-0.25204 -0.01263,-0.001 -0.02387,-0.002 -0.03402,-0.002 z m -0.402686,6.73161 c -0.02383,-10e-4 -0.05317,3.3e-4 -0.09005,0.004 -0.190575,0.0157 -0.185245,-0.0155 -0.09328,0.55105 0.09792,0.60325 0.08046,3.85567 -0.02675,4.97983 -0.04755,0.49855 -0.0979,0.90507 -0.111907,0.90338 -0.05181,-0.006 -0.656973,-0.81086 -0.794448,-1.05627 -0.169606,-0.30281 -0.228493,-0.34258 -0.412218,-0.27854 -0.161115,0.0562 -0.176187,0.14754 -0.05088,0.30835 0.191912,0.24626 0.928785,1.22966 1.084355,1.44709 0.09112,0.12734 0.166676,0.2864 0.16786,0.35347 0.0025,0.14061 0.183197,0.25852 0.396131,0.25852 0.219819,0 0.60056,-0.33188 1.052706,-0.91763 0.343029,-0.4444 0.506431,-0.65318 0.821287,-1.04895 0.16516,-0.20761 0.356618,-0.47954 0.42542,-0.60429 0.150073,-0.27212 0.148389,-0.26347 0.03716,-0.194 -0.04924,0.0308 -0.08953,0.0812 -0.08953,0.11225 0,0.0608 -0.05596,0.075 -0.104475,0.0265 -0.01646,-0.0164 0.0034,-0.0668 0.04424,-0.1119 0.04079,-0.0451 0.05297,-0.0821 0.0271,-0.0821 -0.02588,0 -0.202713,0.16547 -0.392982,0.36772 -0.330705,0.35154 -0.415125,0.45332 -0.870159,1.04938 -0.317342,0.41568 -0.674531,0.81858 -0.772066,0.87076 -0.167236,0.0895 -0.183463,5.1e-4 -0.128168,-0.70622 0.125326,-1.60157 0.141538,-2.00457 0.141369,-3.50643 -1.69e-4,-1.55261 -0.04272,-2.36758 -0.136299,-2.61371 -0.03061,-0.0805 -0.05293,-0.10803 -0.124407,-0.11165 z m 13.35392,1.53345 c -0.207157,-0.001 -0.410886,0.0332 -0.541261,0.10308 -0.397998,0.21302 -0.519674,0.47389 -0.273383,0.58609 0.08379,0.0382 0.12109,0.11515 0.181672,0.37603 0.07922,0.34107 0.158311,1.08547 0.172843,1.62623 0.0082,0.30433 0.01184,0.31374 0.128693,0.32724 0.08791,0.01 0.139916,-0.016 0.193127,-0.0973 0.06281,-0.0958 0.06618,-0.15873 0.02465,-0.45732 -0.02649,-0.19039 -0.04033,-0.35397 -0.03078,-0.36353 0.0095,-0.01 0.135694,0.10042 0.280292,0.24436 0.340324,0.3388 0.942056,0.81111 1.07631,0.84481 0.06217,0.0156 0.150337,-0.004 0.216469,-0.0469 0.06137,-0.0402 0.111556,-0.0921 0.111556,-0.11528 0,-0.0232 -0.140858,-0.13423 -0.313075,-0.24664 -0.342361,-0.22349 -1.164089,-0.98293 -1.164089,-1.07588 0,-0.0319 0.09568,-0.11733 0.212621,-0.18997 0.493596,-0.30636 0.816801,-0.72149 0.754582,-0.96939 -0.03872,-0.15427 -0.201155,-0.30607 -0.468257,-0.43768 -0.144211,-0.0711 -0.354824,-0.10718 -0.561979,-0.10814 z m -1.709108,0.0839 c -0.203323,0.001 -0.456513,0.0511 -0.734297,0.14557 -0.426986,0.14522 -0.463049,0.17802 -0.429179,0.38985 0.02836,0.17736 -0.14005,0.68777 -0.389311,1.17998 -0.285152,0.56311 -0.29687,1.02869 -0.03261,1.29296 0.127066,0.12706 0.158744,0.13639 0.462399,0.13639 0.286758,0 0.367018,-0.0203 0.667242,-0.16874 0.187715,-0.0928 0.394006,-0.23124 0.458378,-0.30774 0.105659,-0.12556 0.110408,-0.1464 0.04905,-0.2142 -0.06309,-0.0697 -0.09756,-0.061 -0.48006,0.12161 -0.256395,0.12241 -0.501469,0.20598 -0.648794,0.2212 -0.225665,0.0233 -0.238999,0.0187 -0.282825,-0.0965 -0.02529,-0.0666 -0.04599,-0.18015 -0.04599,-0.25241 0,-0.11431 0.01642,-0.13131 0.12642,-0.13131 0.199384,0 1.376116,-0.42226 1.553223,-0.55734 0.128666,-0.0981 0.149792,-0.13437 0.107629,-0.18518 -0.07869,-0.0949 -0.190578,-0.0787 -0.802491,0.11588 -0.307743,0.0979 -0.614134,0.1781 -0.680881,0.17844 l -0.121348,4.9e-4 0.200645,-0.47882 c 0.357315,-0.85286 0.381198,-0.89287 0.567486,-0.95016 0.09202,-0.0283 0.303527,-0.0636 0.470009,-0.0783 0.16648,-0.0147 0.337921,-0.045 0.381004,-0.0671 0.127946,-0.0656 0.08978,-0.17105 -0.089,-0.24575 -0.08062,-0.0337 -0.1847,-0.0498 -0.306693,-0.0488 z m -6.58892,0.1232 c -0.247661,-0.001 -0.639739,0.28922 -0.883885,0.68269 -0.340514,0.54879 -0.482022,1.19658 -0.35644,1.63139 0.180756,0.62585 0.935634,0.98124 1.59449,0.75074 0.292639,-0.10235 0.617524,-0.33602 0.585409,-0.42097 -0.02093,-0.0553 -0.0094,-0.0532 0.05438,0.01 0.136488,0.13531 0.514127,0.3041 0.740419,0.33092 0.155254,0.0184 0.300424,-0.002 0.522462,-0.0735 0.366995,-0.11806 0.553985,-0.22703 0.712004,-0.41483 0.108173,-0.12855 0.114867,-0.16026 0.08612,-0.40803 -0.03121,-0.26895 -0.15573,-0.6769 -0.324615,-1.06355 -0.124456,-0.28492 -0.06431,-0.3778 0.126943,-0.19609 0.169459,0.16103 0.266143,0.34485 0.39989,0.76018 0.0555,0.17234 0.197814,0.54498 0.316224,0.8281 0.118407,0.28312 0.228716,0.56899 0.245144,0.63525 0.02158,0.087 0.06746,0.12869 0.164974,0.15012 0.179528,0.0394 0.265133,-0.0507 0.331524,-0.34928 0.06242,-0.28069 0.370082,-1.18253 0.52657,-1.54343 0.06152,-0.14187 0.173011,-0.39892 0.24768,-0.57124 h 8.8e-5 c 0.17794,-0.41088 0.177877,-0.49897 -3.38e-4,-0.53812 -0.0763,-0.0168 -0.154367,-0.0133 -0.173455,0.007 -0.0631,0.0692 -0.534384,1.20808 -0.666892,1.61146 -0.07158,0.21791 -0.154468,0.45665 -0.184208,0.5305 l -0.05412,0.13429 -0.111556,-0.2462 c -0.06136,-0.1354 -0.191211,-0.47529 -0.288596,-0.75529 -0.204527,-0.58799 -0.455355,-0.99297 -0.670039,-1.0819 -0.13363,-0.0554 -0.149565,-0.0526 -0.209738,0.0382 -0.04427,0.0667 -0.110649,0.0981 -0.207375,0.0981 -0.07824,0 -0.166378,0.0242 -0.195924,0.0537 -0.08339,0.0834 -0.06355,0.32755 0.0411,0.5049 0.120951,0.205 0.307994,0.80814 0.308003,0.99325 1.1e-5,0.23065 -0.04408,0.28694 -0.331259,0.4228 -0.544046,0.25737 -1.073769,0.13418 -1.197396,-0.27845 -0.0998,-0.33307 0.07076,-1.00815 0.345683,-1.36858 0.166656,-0.2185 0.25635,-0.25337 0.378734,-0.14722 0.119519,0.10367 0.150232,0.10802 0.214544,0.0305 0.132707,-0.15991 -0.254661,-0.4634 -0.487753,-0.38215 -0.530702,0.185 -0.956877,1.40917 -0.737533,2.11844 0.02468,0.0797 -0.01754,0.10307 -0.388001,0.21437 -0.45693,0.13729 -0.778253,0.156 -0.970698,0.0564 -0.212629,-0.10996 -0.395393,-0.35821 -0.452697,-0.61495 -0.144298,-0.64652 0.365864,-1.65396 0.950854,-1.87767 0.199747,-0.0764 0.240538,-0.15457 0.120208,-0.23046 -0.0341,-0.0215 -0.07505,-0.0318 -0.12091,-0.032 z m 8.40801,0.14372 c 0.111,0.001 0.190716,0.026 0.311152,0.0881 0.28408,0.14653 0.285437,0.24804 0.0068,0.52665 -0.222471,0.22248 -0.478775,0.4049 -0.569323,0.40522 -0.05468,1.7e-4 -0.19983,-0.57744 -0.198983,-0.79173 6.77e-4,-0.17406 0.02937,-0.1936 0.326189,-0.2218 0.04661,-0.005 0.08715,-0.007 0.124147,-0.006 z m -23.390517,1.89375 c -0.675852,5e-4 -1.064117,0.0724 -1.457581,0.27007 -0.255776,0.1285 -0.308402,0.19156 -0.291131,0.34891 0.02161,0.19686 0.09611,0.24155 0.215596,0.12931 0.137041,-0.12876 0.362261,-0.2183 0.829416,-0.32979 0.956458,-0.22823 1.800379,-0.0331 1.800468,0.41651 5.1e-5,0.21166 0.227333,0.65792 0.431015,0.84612 0.09524,0.088 0.35448,0.30283 0.576055,0.47744 0.451428,0.35574 0.615605,0.52057 0.970175,0.97401 0.229938,0.29406 0.618894,0.90762 0.618894,0.97621 0,0.017 -0.140294,0.0309 -0.311764,0.0309 -0.354812,0 -0.415174,0.0506 -0.377246,0.31659 0.03672,0.25748 0.280854,0.71107 0.432326,0.80319 0.21031,0.1279 0.437106,0.15025 0.652028,0.0643 0.180039,-0.072 0.18657,-0.0817 0.18657,-0.27495 0,-0.13558 0.01734,-0.19456 0.05359,-0.18247 0.104222,0.0348 0.342221,0.43887 0.390186,0.66253 0.108281,0.50487 0.02366,1.26099 -0.170482,1.52358 -0.05183,0.0701 -0.09425,0.17382 -0.09425,0.23046 0,0.0567 -0.03783,0.12654 -0.0841,0.15543 -0.06389,0.0399 -0.08863,0.1206 -0.102989,0.33528 -0.0377,0.56379 -0.504994,1.26382 -0.999113,1.49685 -0.300286,0.14161 -0.697428,0.14762 -0.832566,0.0126 -0.239735,-0.23972 -0.3549,-0.77592 -0.244183,-1.13699 0.09576,-0.31229 0.08915,-0.34961 -0.0779,-0.43959 -0.201429,-0.10851 -0.274017,-0.0661 -0.3421,0.19953 -0.07387,0.28819 -0.25251,0.49122 -0.55079,0.62606 -0.197416,0.0892 -0.303859,0.10585 -0.660597,0.10295 -0.502383,-0.004 -0.760962,-0.0888 -0.760962,-0.24882 0,-0.13372 0.161282,-0.3626 0.319632,-0.45347 0.153983,-0.0883 0.166099,-0.22482 0.02851,-0.3212 -0.140296,-0.0982 -0.276211,-0.0866 -0.423059,0.0362 -0.428455,0.35822 -1.688019,0.66181 -2.451622,0.59091 -0.679735,-0.0631 -1.087879,-0.24568 -1.492027,-0.66715 -0.289124,-0.30151 -0.412915,-0.51961 -0.412915,-0.72791 0,-0.1206 -0.144358,-0.28641 -0.24943,-0.28641 -0.07569,0 -0.123328,0.23296 -0.08463,0.41396 0.04729,0.22121 0.39029,0.7084 0.708069,1.00567 0.486215,0.45483 1.228366,0.67905 2.065546,0.62414 0.446317,-0.0292 1.060864,-0.13532 1.35564,-0.23395 0.105489,-0.0353 0.206207,-0.064 0.223813,-0.064 0.01761,9e-5 0.06932,0.0907 0.114879,0.20152 0.09981,0.2427 0.235214,0.34634 0.589519,0.4506 0.48055,0.14139 1.073022,0.0712 1.529443,-0.18116 0.19843,-0.10972 0.237715,-0.10477 0.237715,0.0305 0,0.23023 0.345215,0.72048 0.598173,0.84952 0.274055,0.13982 0.725865,0.0996 1.095982,-0.0978 0.508702,-0.27113 0.911157,-0.81718 1.069144,-1.45049 0.03745,-0.1501 0.08733,-0.29704 0.110855,-0.32663 0.02353,-0.0296 0.03081,-0.0915 0.01617,-0.13761 -0.01892,-0.0596 0.0059,-0.10114 0.08585,-0.14399 0.07027,-0.0376 0.112426,-0.099 0.112426,-0.16366 0,-0.0569 0.03032,-0.17935 0.0674,-0.27217 0.03709,-0.0928 0.08627,-0.28967 0.1092,-0.43739 0.0853,-0.54948 -0.02792,-1.20907 -0.279154,-1.62597 -0.07897,-0.13105 -0.269584,-0.34246 -0.423495,-0.46992 -0.211267,-0.17495 -0.311979,-0.30005 -0.411169,-0.51048 -0.133204,-0.2826 -0.457696,-0.80388 -0.612075,-0.98329 -0.04649,-0.054 -0.134741,-0.1649 -0.196097,-0.24628 -0.192261,-0.25501 -0.632476,-0.6761 -1.088552,-1.04134 -0.461759,-0.36979 -0.611977,-0.57523 -0.613736,-0.83931 -0.0012,-0.17468 -0.130696,-0.4746 -0.251265,-0.58164 -0.04724,-0.0419 -0.206243,-0.13242 -0.353292,-0.20118 -0.252873,-0.11817 -0.301305,-0.125 -0.894025,-0.12467 z m 3.565439,4.52496 c 0.0899,0.002 0.195659,0.017 0.235004,0.0321 0.08164,0.0313 0.10242,0.36393 0.0257,0.41135 -0.09681,0.0598 -0.303382,-0.0278 -0.35067,-0.14871 -0.100801,-0.25788 -0.08796,-0.29994 0.08996,-0.29479 z m 9.157085,3.19947 c -0.11587,-0.004 -0.315237,0.008 -0.693907,0.0349 -1.198531,0.0827 -2.933869,0.22165 -3.411918,0.27339 -0.233884,0.0253 -0.757607,0.0769 -1.163826,0.11455 -0.859186,0.0796 -0.831562,0.0761 -1.58907,0.20466 -0.685194,0.11625 -0.747641,0.15232 -0.60683,0.35007 0.1168,0.16402 0.144781,0.25234 0.316485,0.99858 0.115266,0.50097 0.136762,0.71036 0.178437,1.73535 0.02606,0.6411 0.06694,1.26879 0.09083,1.3948 0.0239,0.12602 0.04345,0.23574 0.04345,0.24385 0,0.008 0.06251,0.0859 0.138921,0.17291 0.181702,0.2069 0.3141,0.20685 1.236304,-8.4e-4 1.889085,-0.42538 2.756662,-0.55575 5.227247,-0.78535 0.801273,-0.0744 1.095228,-0.1177 1.156658,-0.17022 v 8e-5 c 0.06404,-0.0547 0.07637,-0.10803 0.05534,-0.23954 -0.01487,-0.0931 -0.04611,-0.50349 -0.0695,-0.9123 -0.0353,-0.61691 -0.03175,-0.76424 0.02116,-0.86659 0.03507,-0.0678 0.05619,-0.13094 0.04695,-0.14022 -0.03423,-0.0343 -0.15868,-1.45554 -0.15868,-1.81209 0,-0.41815 -0.03868,-0.48803 -0.29725,-0.53654 -0.112329,-0.021 -0.17119,-0.0121 -0.197235,0.0301 -0.02987,0.0483 -0.05545,0.0435 -0.130704,-0.0245 -0.04465,-0.0404 -0.077,-0.061 -0.192863,-0.0649 z m 0.336244,0.31515 c 0.006,-3.3e-4 0.01027,5.2e-4 0.01242,0.002 0.0085,0.008 0.03522,0.2668 0.05945,0.57415 0.03057,0.3877 0.02958,0.56777 -0.003,0.58794 -0.03273,0.0203 -0.03126,0.13591 0.0048,0.38066 0.02851,0.19339 0.07161,0.57321 0.09574,0.84401 0.02412,0.27081 0.04386,0.72674 0.04389,1.0132 v 0.5208 l -0.34691,0.0504 c -0.328658,0.0477 -0.516547,0.068 -1.689786,0.1828 -1.503535,0.14705 -2.445445,0.30631 -4.364345,0.73807 -0.268972,0.0605 -0.626675,0.0904 -0.626675,0.0523 0,-0.008 -0.0189,-0.11612 -0.04205,-0.23824 -0.02315,-0.12207 -0.06427,-0.71401 -0.09136,-1.31541 -0.0391,-0.86831 -0.07293,-1.20406 -0.164276,-1.63061 -0.170557,-0.79648 -0.207264,-1.00953 -0.178787,-1.038 0.09174,-0.0917 2.795603,-0.39214 4.549865,-0.50551 0.406219,-0.0262 0.788942,-0.0565 0.85049,-0.0672 0.06154,-0.0109 0.47448,-0.0325 0.91763,-0.0487 0.443148,-0.0162 0.842713,-0.0489 0.887907,-0.0727 0.03389,-0.0179 0.06705,-0.0294 0.08507,-0.0304 z m -1.685153,1.51992 c -0.04274,5.1e-4 -0.09314,0.004 -0.154221,0.008 -0.294221,0.0227 -0.711724,0.16829 -0.777049,0.27102 -0.07289,0.11468 -0.0275,0.30249 0.143904,0.59582 0.09848,0.16852 0.179051,0.35913 0.179051,0.42358 0,0.17786 -0.179173,0.41109 -0.391673,0.50978 -0.104632,0.0486 -0.189879,0.109 -0.189541,0.1343 0.0019,0.12631 0.09428,0.18018 0.30888,0.18018 0.199512,0 0.242536,-0.0187 0.403823,-0.17625 0.327592,-0.31989 0.348703,-0.62993 0.07483,-1.0972 -0.08885,-0.15162 -0.161563,-0.29242 -0.161563,-0.3129 0,-0.0697 0.298717,-0.17928 0.563814,-0.20669 0.1454,-0.015 0.289471,-0.035 0.320245,-0.0446 0.09014,-0.0278 0.0621,-0.12544 -0.06207,-0.21592 -0.07101,-0.0518 -0.13021,-0.0708 -0.258434,-0.0691 z m -2.050333,0.0445 c -0.05498,0.005 -0.09333,0.03 -0.107798,0.0752 -0.06715,0.2096 -0.485905,1.17309 -0.575445,1.324 l -0.101671,0.17136 -0.04765,-0.13682 c -0.05401,-0.15495 -0.288613,-0.31785 -0.455931,-0.31667 -0.163363,10e-4 -0.492387,0.16245 -0.492387,0.2413 0,0.10114 0.166534,0.17104 0.363083,0.1523 0.201924,-0.0192 0.212578,0.0135 0.105961,0.32645 -0.05276,0.15481 -0.100197,0.21202 -0.210175,0.25354 -0.117259,0.0442 -0.160435,0.0417 -0.247242,-0.0152 -0.20822,-0.13643 -0.280694,-0.59019 -0.167861,-1.05062 0.07806,-0.31849 0.100451,-0.34953 0.188755,-0.26123 0.06798,0.068 0.280815,0.0109 0.280815,-0.0759 0,-0.13383 -0.132042,-0.32086 -0.265602,-0.37619 -0.173983,-0.072 -0.33083,-0.0317 -0.422971,0.10899 -0.182325,0.27825 -0.266041,1.03932 -0.157368,1.43073 0.0634,0.22836 0.330072,0.49808 0.532604,0.53864 0.08617,0.0173 0.196955,0.0779 0.246195,0.13481 0.04924,0.0569 0.151168,0.11648 0.226521,0.13237 0.159998,0.0338 0.174912,0.0109 0.338254,-0.51153 0.05769,-0.18465 0.10903,-0.3428 0.114093,-0.35148 0.0051,-0.008 0.05525,0.0166 0.111556,0.0559 0.177953,0.12463 0.30256,0.0928 0.37681,-0.0962 0.104487,-0.26596 0.135394,-0.30303 0.239811,-0.28763 0.054,0.008 0.149008,-0.0189 0.211137,-0.0596 0.06212,-0.0407 0.122636,-0.0644 0.134461,-0.0526 0.03769,0.0377 0.146498,0.53994 0.14819,0.68376 0.0021,0.17646 0.132673,0.29794 0.299785,0.27881 0.106662,-0.0122 0.12933,-0.0376 0.14102,-0.15859 0.0076,-0.0793 -0.0276,-0.29207 -0.07834,-0.4729 -0.09704,-0.34582 -0.118214,-0.56924 -0.05394,-0.56924 0.02107,0 0.131865,-0.0714 0.246193,-0.15868 v -8e-5 c 0.288985,-0.2207 0.270964,-0.25951 -0.102638,-0.22198 l -0.310456,0.0312 -0.05018,-0.19444 c -0.101925,-0.39527 -0.139082,-0.47317 -0.249953,-0.52369 -0.08111,-0.037 -0.152663,-0.0528 -0.207638,-0.0481 z m 0.07151,0.77695 c 0.01015,0.001 0.02012,0.0122 0.03183,0.0307 0.05624,0.0888 0.05015,0.11589 -0.03296,0.14775 -0.103061,0.0395 -0.121488,0.006 -0.05954,-0.11032 0.02644,-0.0494 0.04378,-0.0709 0.06067,-0.0682 z" />
      <text
         xml:space="preserve"
         style="font-style:normal;font-weight:normal;font-size:24.8407px;line-height:1.25;font-family:sans-serif;fill:#000000;fill-opacity:1;stroke:none;stroke-width:0.129379"
         x="9.8104258"
         y="232.60521"
         id="text1083"><tspan
           sodipodi:role="line"
           x="9.8104258"
           y="232.60521"
           style="font-style:normal;font-variant:normal;font-weight:normal;font-stretch:normal;font-size:24.8407px;font-family:'Liberation Sans';-inkscape-font-specification:'Liberation Sans';stroke-width:0.129379"
           id="tspan1081">2</tspan></text>
      <path
         id="path1056"
         style="fill:#000000;stroke-width:0.0462119"
         d="m 37.491188,252.66873 c -0.175679,0.007 -0.410782,0.12163 -0.825225,0.36726 -1.632404,0.96749 -2.027461,1.38044 -2.51106,2.62515 -0.138913,0.35754 -0.144135,0.51127 -0.03466,1.01097 0.238388,1.08815 0.38457,1.44448 0.730272,1.77998 0.312263,0.30304 0.500467,0.37753 1.02542,0.40571 l 0.462119,0.0248 0.08195,0.27727 c 0.04505,0.1525 0.115044,0.39062 0.155513,0.52918 0.09324,0.31926 0.262964,0.58945 0.430802,0.68578 0.127452,0.0731 0.131182,0.0866 0.149736,0.5391 0.01583,0.3861 0.03915,0.50294 0.138908,0.69518 0.207654,0.4001 0.472009,0.57615 0.927035,0.61754 l 0.322943,0.0294 0.07906,0.30435 c 0.14396,0.55433 0.508387,0.96231 1.14961,1.28698 0.185205,0.0938 0.195218,0.10791 0.128891,0.18115 -0.08191,0.0906 -0.05777,0.24324 0.06688,0.42259 0.04416,0.0635 0.11518,0.27852 0.157864,0.47773 0.100061,0.46705 0.177038,0.6464 0.328534,0.76557 0.159816,0.12571 0.43084,0.19687 0.611861,0.16066 0.118212,-0.0236 0.173252,-0.002 0.307776,0.11514 0.09012,0.0791 0.258528,0.16772 0.37421,0.19685 0.148142,0.0373 0.22221,0.0841 0.250372,0.15813 0.05059,0.13309 0.191021,0.17831 0.407423,0.13133 0.0931,-0.0202 0.190025,-0.0393 0.21545,-0.0425 0.02541,-0.004 0.134572,-0.0334 0.242518,-0.0674 0.176763,-0.0555 0.205474,-0.0533 0.288826,0.0222 0.0509,0.046 0.09251,0.1119 0.09251,0.14648 0,0.0346 0.01992,0.0989 0.04422,0.14306 0.02431,0.0442 0.07562,0.19539 0.113995,0.33612 0.06075,0.22284 0.08971,0.26311 0.224741,0.31194 0.08527,0.0308 0.181268,0.056 0.213279,0.056 0.05152,0 0.357693,-0.18217 0.699136,-0.416 0.06432,-0.044 0.204335,-0.12462 0.311116,-0.17916 0.122878,-0.0626 0.227567,-0.1625 0.285309,-0.27186 0.05017,-0.0951 0.0919,-0.19354 0.09279,-0.21897 0.0034,-0.10416 -0.1351,-0.54844 -0.179432,-0.57584 -0.103204,-0.0637 -0.414382,-0.52626 -0.386577,-0.57449 0.01624,-0.0282 0.08897,-0.13547 0.161654,-0.23846 0.198841,-0.28175 0.358541,-0.77915 0.359765,-1.12019 0.002,-0.60922 -0.240717,-1.4023 -0.476469,-1.55676 -0.104327,-0.0684 -0.11629,-0.10641 -0.114718,-0.3669 0.0017,-0.30028 -0.01235,-0.39607 -0.133132,-0.90483 -0.07956,-0.33521 -0.147805,-0.43385 -0.383863,-0.55499 -0.296834,-0.15235 -0.346698,-0.25046 -0.552109,-1.08554 -0.222104,-0.90291 -0.24692,-0.96387 -0.457064,-1.12416 -0.13571,-0.10354 -0.214242,-0.12163 -0.624315,-0.14414 l -0.469157,-0.0257 -0.0296,-0.32349 c -0.05616,-0.61328 -0.257659,-0.8986 -0.763758,-1.08147 -0.455146,-0.16444 -0.411864,-0.069 -0.386305,-0.85302 0.0079,-0.23995 -0.0061,-0.28667 -0.122029,-0.41031 -0.170753,-0.18211 -0.434221,-0.29498 -0.77784,-0.33324 -0.453921,-0.0505 -0.438754,-0.0373 -0.440548,-0.38666 -0.0021,-0.41147 -0.141301,-0.97874 -0.305252,-1.24393 -0.177293,-0.28676 -0.444536,-0.42337 -0.897977,-0.45914 -0.229549,-0.0181 -0.373957,-0.0538 -0.43576,-0.10778 -0.09699,-0.0847 -0.183558,-0.13237 -0.291264,-0.13684 -0.01123,-5.2e-4 -0.02268,-5.2e-4 -0.03438,0 z m -0.180064,0.48225 c 0.0079,-1.2e-4 0.01471,5.3e-4 0.02048,0.002 0.06355,0.016 0.185722,0.0405 0.271496,0.0546 0.08578,0.0141 0.204913,0.0509 0.264725,0.082 0.07093,0.0368 0.183882,0.045 0.324926,0.0236 0.383536,-0.0583 0.488543,0.001 0.654189,0.37069 0.09286,0.20708 0.118249,0.35308 0.137103,0.78795 0.03174,0.73179 0.0979,0.80592 0.7819,0.87649 0.475502,0.049 0.570366,0.11389 0.567451,0.38757 -10e-4,0.10404 -0.01808,0.27245 -0.03772,0.37412 -0.07836,0.40531 0.07868,0.59515 0.627563,0.75861 0.179127,0.0534 0.346179,0.12288 0.37123,0.15444 0.09799,0.1235 0.161238,0.43271 0.159662,0.781 l -0.0015,0.36463 0.178984,0.0912 c 0.142498,0.0727 0.272049,0.0913 0.635774,0.0913 0.377663,0 0.468806,0.014 0.526474,0.0808 0.03836,0.0445 0.157822,0.43104 0.265446,0.85907 0.10762,0.42804 0.224285,0.84668 0.25922,0.93029 0.07218,0.17274 0.264768,0.34999 0.474666,0.43694 0.09342,0.0387 0.159308,0.10941 0.190626,0.20462 0.06436,0.19553 0.185333,1.06224 0.186382,1.33536 6.98e-4,0.20138 0.0101,0.2195 0.113084,0.2195 0.155102,0 0.242595,0.10192 0.328994,0.38342 h -9.2e-5 c 0.0406,0.13226 0.08352,0.44839 0.09531,0.70256 0.01741,0.37548 0.005,0.50789 -0.06615,0.70636 -0.09629,0.26867 -0.395463,0.73065 -0.525931,0.81214 -0.128772,0.0805 -0.09924,0.18594 0.09594,0.3428 0.208606,0.16763 0.421778,0.50805 0.421778,0.6735 0,0.0634 -0.0489,0.17401 -0.108669,0.24586 -0.05977,0.0718 -0.130609,0.17254 -0.157499,0.22375 -0.0269,0.0513 -0.13164,0.13965 -0.232773,0.19649 l -0.183949,0.10329 -0.02915,-0.15542 c -0.01603,-0.0855 -0.07137,-0.19369 -0.122928,-0.24036 -0.05156,-0.0466 -0.169781,-0.21065 -0.262738,-0.36445 -0.22098,-0.3656 -0.258462,-0.39991 -0.467267,-0.42791 -0.258116,-0.0347 -0.460263,0.0873 -0.645432,0.38945 -0.0259,0.0423 -0.109043,0.0265 -0.333049,-0.0632 -0.370486,-0.14835 -0.400446,-0.17236 -0.440276,-0.35372 -0.05858,-0.26672 -0.214026,-0.31925 -0.505263,-0.17077 -0.236276,0.12051 -0.328631,0.11664 -0.416452,-0.0175 -0.109205,-0.16665 -0.159144,-0.38206 -0.188998,-0.81439 -0.04173,-0.60437 -0.110303,-0.74535 -0.474574,-0.97614 -0.562024,-0.35605 -0.629156,-0.40777 -0.737768,-0.56835 -0.18343,-0.27119 -0.328757,-0.68095 -0.329982,-0.93019 -5.24e-4,-0.12835 -0.026,-0.25833 -0.0565,-0.28883 -0.07994,-0.08 -0.263487,-0.0656 -0.476016,0.0371 -0.245473,0.11851 -0.313105,0.11464 -0.482611,-0.0279 -0.332517,-0.2798 -0.461333,-0.71198 -0.369514,-1.23924 0.06128,-0.35186 0.02244,-0.44262 -0.189179,-0.44262 -0.08689,0 -0.167467,-0.0458 -0.247308,-0.14072 -0.127128,-0.15108 -0.181298,-0.3123 -0.306606,-0.91214 -0.04425,-0.21181 -0.118673,-0.42573 -0.166613,-0.47882 -0.08119,-0.0899 -0.117588,-0.0939 -0.578735,-0.0641 -0.404932,0.0262 -0.517394,0.0187 -0.634781,-0.0419 -0.431494,-0.22314 -0.676612,-0.61866 -0.86873,-1.40179 -0.176543,-0.71958 -0.169981,-1.13133 0.02527,-1.58158 0.202778,-0.46762 0.512061,-0.95301 0.754198,-1.18364 0.467772,-0.44557 1.668981,-1.19369 1.911927,-1.19763 z m 0.555537,0.79219 c -0.0037,-3.5e-4 -0.0077,-1.6e-4 -0.01185,3.5e-4 -0.07247,0.01 -0.207167,0.1478 -0.547861,0.52269 -0.47369,0.52122 -0.878263,0.88929 -1.278864,1.1635 -0.321067,0.21979 -0.443815,0.26943 -0.790655,0.31961 -0.3392,0.049 -0.434688,0.11626 -0.329712,0.23232 0.04063,0.0449 0.124662,0.0944 0.186741,0.11003 0.164899,0.0414 0.645323,-0.0952 0.982906,-0.27935 0.59617,-0.3253 1.55407,-1.23422 1.781239,-1.69007 0.08927,-0.17917 0.105837,-0.25516 0.07003,-0.32204 -0.01815,-0.0339 -0.0358,-0.0551 -0.062,-0.057 z m -0.0185,1.56056 c -0.02835,-10e-4 -0.06483,0.006 -0.109754,0.0232 -0.0878,0.0334 -0.130349,0.0984 -0.17176,0.26292 -0.03026,0.12014 -0.088,0.2829 -0.128345,0.36167 -0.08316,0.16233 -0.599905,0.83401 -0.969009,1.25945 -0.262728,0.30284 -0.317637,0.50032 -0.172573,0.6207 0.06247,0.0519 0.09695,0.0479 0.219506,-0.0256 0.253412,-0.15177 1.0633,-0.57777 1.075421,-0.56565 0.0064,0.006 -0.04871,0.13592 -0.122478,0.28783 -0.194367,0.4004 -0.30786,0.90917 -0.237377,1.06387 0.04571,0.1003 0.07633,0.1159 0.18232,0.0926 0.11044,-0.0242 0.134347,-0.009 0.180157,0.11202 0.06387,0.16922 0.1367,0.1751 0.537301,0.0437 l 0.29352,-0.0963 0.215805,0.10142 c 0.118686,0.0558 0.215806,0.12387 0.215806,0.15127 0,0.0544 -0.459274,0.49453 -0.516003,0.49453 -0.01919,0 -0.05959,0.0826 -0.08981,0.18339 -0.04349,0.14511 -0.04269,0.19816 0.0037,0.25418 0.105038,0.12655 0.201253,0.0767 0.580985,-0.30111 l 0.37385,-0.37186 0.227899,0.11714 c 0.321255,0.16505 0.446065,0.17204 0.460405,0.0258 0.0077,-0.0792 -0.04049,-0.16967 -0.15371,-0.28792 l -0.16499,-0.1724 0.320327,-0.33594 c 0.176225,-0.18478 0.378992,-0.39235 0.450566,-0.46131 0.09939,-0.0957 0.126686,-0.16021 0.115529,-0.27266 -0.02275,-0.22933 -0.12128,-0.25853 -0.411757,-0.12201 -0.353447,0.16608 -2.066672,0.70568 -2.108328,0.66403 -0.0062,-0.006 0.149441,-0.11889 0.345957,-0.25037 0.85647,-0.57303 1.229543,-0.86727 1.264239,-0.99699 0.04599,-0.17198 0.0082,-0.25459 -0.132499,-0.28991 -0.09475,-0.0238 -0.143465,10e-4 -0.260664,0.13647 -0.236225,0.27164 -1.469959,1.10156 -1.53736,1.03418 -0.05065,-0.0507 0.245155,-0.60918 0.466722,-0.88119 0.240455,-0.29522 0.294662,-0.50739 0.153078,-0.59904 -0.06529,-0.0423 -0.180449,-0.002 -0.617633,0.21554 -0.295548,0.14711 -0.54402,0.26082 -0.552195,0.25262 -0.0082,-0.009 0.09777,-0.16369 0.23539,-0.3456 0.287905,-0.38051 0.498169,-0.7734 0.582344,-1.08814 0.05241,-0.19593 0.04041,-0.28905 -0.04467,-0.29451 z m 1.57933,3.13573 c 0.05479,8.7e-4 0.02868,0.077 -0.06779,0.1446 -0.09461,0.0662 -0.225824,0.0566 -0.225824,-0.0165 0,-0.0197 0.03639,-0.0463 0.08087,-0.0591 0.04447,-0.0127 0.117264,-0.0383 0.161742,-0.0566 0.02139,-0.009 0.03835,-0.0126 0.051,-0.0125 z m 1.014588,0.4049 c -0.122216,0 -0.199109,0.12362 -0.199109,0.32033 0,0.11414 0.02719,0.1527 0.140257,0.19937 l 0.140263,0.0579 -0.359769,0.23739 c -0.19787,0.13055 -0.486913,0.31183 -0.642365,0.4029 -0.304652,0.17849 -0.420394,0.35436 -0.368702,0.56032 0.03453,0.13755 0.210607,0.16054 0.310217,0.0405 0.102555,-0.12362 1.157373,-0.80212 1.246909,-0.80212 0.04528,0 0.09513,-0.0208 0.110839,-0.0461 0.08762,-0.14179 0.37013,0.0877 0.410039,0.33314 0.031,0.19065 -0.04455,0.25481 -0.366267,0.31083 -0.716673,0.12481 -1.129753,0.40444 -1.129753,0.76476 0,0.48975 0.960769,1.08401 1.111523,0.68749 0.0255,-0.0671 0.04064,-0.12608 0.03358,-0.13115 -0.0071,-0.005 -0.106498,-0.0729 -0.220861,-0.15072 -0.30651,-0.20858 -0.491935,-0.41661 -0.428186,-0.48035 0.09696,-0.0969 0.303192,0.01 0.632527,0.32736 0.353848,0.34123 0.646167,0.5568 0.755097,0.5568 0.05568,0 0.05773,-0.013 0.01098,-0.0694 -0.04713,-0.0568 -0.0439,-0.0694 0.01751,-0.0694 0.04123,0 0.07491,-0.0125 0.07491,-0.0266 0,-0.0453 -0.493233,-0.68353 -0.619619,-0.80177 -0.06587,-0.0616 -0.119771,-0.12919 -0.119771,-0.15019 0,-0.021 0.140365,-0.038 0.311932,-0.038 0.311578,1.7e-4 0.312244,5.2e-4 0.589201,0.24749 0.343905,0.30666 0.468954,0.35534 0.528817,0.20606 0.02364,-0.059 0.04437,-0.14001 0.04594,-0.18015 0.0039,-0.0982 -0.477022,-0.62422 -0.698506,-0.76404 -0.167209,-0.10554 -0.175805,-0.12213 -0.149196,-0.28856 0.03583,-0.22399 -0.08223,-0.46467 -0.358595,-0.73081 -0.26412,-0.25438 -0.68049,-0.5235 -0.809878,-0.5235 z m 1.904976,3.00106 c -0.10051,-0.005 -0.229743,0.12593 -0.405528,0.40192 -0.107284,0.16846 -0.22899,0.28601 -0.833169,0.80493 -0.20361,0.17486 -0.175962,0.45597 0.04513,0.45877 0.121842,10e-4 1.1917,-1.05008 1.276873,-1.25512 0.01935,-0.0465 0.03765,-0.0419 0.07663,0.0197 0.02815,0.0445 0.09277,0.0808 0.143603,0.0808 0.233421,0 0.547006,0.2562 0.548946,0.44848 0.0014,0.14675 -0.237488,0.18106 -0.58225,0.0836 -0.56789,-0.16055 -0.622628,-0.11227 -0.757266,0.66981 -0.117164,0.68056 -0.11639,0.73264 0.01198,0.78172 0.124499,0.0476 0.287941,-0.0776 0.299384,-0.22935 0.0077,-0.10292 0.09677,-0.57054 0.132946,-0.69841 0.01855,-0.0656 0.07322,-0.0728 0.384678,-0.0515 0.459683,0.0316 0.58555,-10e-4 0.774863,-0.20208 0.125738,-0.13332 0.152628,-0.19819 0.152628,-0.36798 0,-0.40083 -0.202334,-0.66857 -0.628375,-0.83128 -0.197501,-0.0755 -0.227034,-0.0763 -0.341266,-0.0112 -0.115855,0.0665 -0.128956,0.0654 -0.178798,-0.0145 -0.03549,-0.0569 -0.07526,-0.0867 -0.120944,-0.0888 z m 20.125662,3.53793 -8.73e-4,0.1677 c -5.25e-4,0.0922 0.04994,0.2794 0.112099,0.41591 0.175231,0.38478 0.262299,0.87814 0.289725,1.64088 0.02651,0.73718 6.99e-4,1.06191 -0.09468,1.1924 -0.05424,0.0742 -0.07278,0.0734 -0.302365,-0.014 -0.134495,-0.0511 -0.360235,-0.17219 -0.501653,-0.26914 -0.226531,-0.1553 -0.755344,-0.71068 -1.067297,-1.1209 -0.11664,-0.15341 -0.282927,-0.18624 -0.37592,-0.0742 -0.04392,0.0529 -0.03938,0.1235 0.02139,0.3326 0.133747,0.46007 0.305134,1.62131 0.274019,1.8566 -0.02371,0.17933 -0.01135,0.23781 0.07284,0.34469 0.104577,0.13276 0.227341,0.13785 0.357783,0.015 0.06451,-0.0609 0.02001,-0.54402 -0.109928,-1.1942 -0.0393,-0.19663 -0.06447,-0.37815 -0.05588,-0.40336 0.0086,-0.0252 0.161176,0.0981 0.339099,0.27384 0.363701,0.35942 0.895314,0.65972 1.328052,0.75049 0.279994,0.0588 0.404894,0.0143 0.404894,-0.14432 0,-0.0427 0.01907,-0.0974 0.04233,-0.12163 0.02327,-0.0242 0.05323,-0.0958 0.06653,-0.1593 h -9.3e-5 c 0.04446,-0.2124 -0.01625,-1.77499 -0.08177,-2.104 -0.136433,-0.68518 -0.208866,-0.85871 -0.471505,-1.13003 z m -17.243459,1.88106 c -0.01922,5.2e-4 -0.03775,0.002 -0.05515,0.007 -0.109966,0.0276 -0.140096,0.0859 -0.289904,0.56158 -0.09195,0.29198 -0.17089,0.53089 -0.175376,0.53089 -0.0045,0 -3.49e-4,-0.15403 0.0091,-0.34234 0.01577,-0.31234 0.0085,-0.34707 -0.08214,-0.39559 -0.05466,-0.0292 -0.165969,-0.0468 -0.247399,-0.0389 l -0.148109,0.0143 0.0138,0.26039 c 0.0075,0.14324 -0.03765,0.55915 -0.10036,0.92424 -0.13726,0.79904 -0.234953,1.90906 -0.192793,2.1902 0.06481,0.4322 0.58033,0.55634 0.579456,0.13954 -1.53e-4,-0.0776 -0.03135,-0.20051 -0.06932,-0.27331 -0.03796,-0.0728 -0.06715,-0.18717 -0.06498,-0.25416 l 0.004,-0.12176 0.0399,0.13313 c 0.05722,0.19114 0.22018,0.34614 0.399119,0.37971 0.272067,0.051 0.415338,-0.20468 0.175822,-0.31381 -0.06415,-0.0292 -0.129093,-0.1028 -0.144324,-0.16356 -0.04046,-0.16118 0.193659,-1.67662 0.333502,-2.15887 0.06595,-0.22745 0.16946,-0.50818 0.230066,-0.62386 0.06062,-0.11565 0.1055,-0.24083 0.09982,-0.27808 -0.01418,-0.0931 -0.180111,-0.18001 -0.314638,-0.17691 z m -1.453516,0.31988 c -0.0141,3.5e-4 -0.02895,10e-4 -0.04458,0.002 l -0.171038,0.0146 -0.01185,0.73939 c -0.01248,0.77623 -0.141764,1.64237 -0.349297,2.33922 -0.05301,0.17799 -0.08993,0.37886 -0.08205,0.44641 0.01805,0.15449 0.205261,0.26719 0.37367,0.22492 0.147203,-0.0369 0.217617,-0.24482 0.218153,-0.64273 1.44e-4,-0.14642 0.04306,-0.45834 0.09539,-0.69318 0.05233,-0.23482 0.122641,-0.66605 0.156328,-0.95835 0.03369,-0.29229 0.06303,-0.7082 0.06517,-0.92424 0.0044,-0.44679 -0.03834,-0.55455 -0.249836,-0.54868 z m 15.691843,0.17166 c -0.0497,-10e-4 -0.09158,0.014 -0.114718,0.0514 -0.01501,0.0243 0.02324,0.16466 0.08493,0.31193 0.229812,0.54857 0.451935,1.33116 0.478002,1.6843 0.02255,0.30539 0.01185,0.383 -0.07789,0.56854 -0.114956,0.23748 -0.299526,0.39211 -0.376284,0.31535 -0.0494,-0.0494 -0.196347,-0.59492 -0.247848,-0.92027 -0.03429,-0.21665 -0.168101,-0.38657 -0.304441,-0.38657 -0.142799,0 -0.153677,0.10604 -0.06453,0.62611 0.06895,0.40226 0.07325,0.51377 0.0259,0.6718 -0.05434,0.18137 -0.06049,0.18617 -0.14333,0.11115 -0.09059,-0.082 -0.475591,-0.96041 -0.527283,-1.20305 -0.05187,-0.24345 -0.197204,-0.43712 -0.327998,-0.43712 -0.178576,0 -0.188309,0.1129 -0.04729,0.54939 0.212007,0.65634 0.536599,1.29808 0.756448,1.49549 0.233024,0.20923 0.370876,0.21905 0.550574,0.0393 0.118411,-0.11839 0.158054,-0.13118 0.342527,-0.11041 0.338212,0.0382 0.605339,-0.15845 0.801218,-0.58956 0.132339,-0.29127 0.06563,-0.83515 -0.204432,-1.66733 -0.128875,-0.39711 -0.234309,-0.75968 -0.234309,-0.80574 0,-0.14863 -0.220121,-0.3011 -0.369247,-0.30488 z m -14.850008,1.17931 c 0.008,5.3e-4 0.01048,0.0318 0.0116,0.0988 0.0014,0.0762 -0.01769,0.16983 -0.04233,0.20795 -0.0353,0.0546 -0.04424,0.0448 -0.04224,-0.0462 0.0014,-0.0635 0.0204,-0.15712 0.04224,-0.20795 0.01492,-0.0347 0.0245,-0.053 0.03069,-0.0527 z m 12.015557,0.7227 c -0.321703,0 -0.418073,0.31722 -0.392892,1.29393 0.01476,0.57288 0.03146,0.69688 0.115255,0.85491 0.175198,0.33043 0.415621,0.45166 0.651298,0.32854 0.129873,-0.0679 0.413624,-0.41154 0.540281,-0.65445 0.03908,-0.075 0.07131,-0.20305 0.07131,-0.28468 3.5e-4,-0.20167 -0.192542,-0.79489 -0.340812,-1.04789 -0.131925,-0.22512 -0.480521,-0.49036 -0.644441,-0.49036 z m 0.142968,0.42917 c 0.05257,0.006 0.123102,0.0952 0.213822,0.26247 0.09713,0.17905 0.139292,0.33003 0.153977,0.55148 0.0184,0.27724 0.0079,0.32427 -0.116702,0.51743 -0.130675,0.20274 -0.26809,0.3066 -0.327274,0.2474 -0.01512,-0.0151 -0.03478,-0.32234 -0.04369,-0.68271 -0.01529,-0.61909 0.01952,-0.90807 0.119859,-0.89607 z m -1.824379,0.19306 c -0.191904,-0.004 -0.560163,0.0878 -0.779106,0.19946 -0.222127,0.11327 -0.513725,0.4216 -0.555263,0.58713 -0.07189,0.28644 0.0172,0.50857 0.355525,0.88652 0.398801,0.4455 0.595793,0.73636 0.595793,0.87956 0,0.20353 0.124574,0.42431 0.258316,0.45788 0.284356,0.0714 0.361733,-0.13867 0.1825,-0.49553 -0.06594,-0.13127 -0.112237,-0.24635 -0.102893,-0.25569 0.0094,-0.009 0.109504,0.0323 0.222662,0.0924 0.232664,0.12375 0.781879,0.23421 0.933357,0.18784 0.05521,-0.017 0.126361,-0.0515 0.158133,-0.077 0.07027,-0.0563 0.07374,-0.14974 0.01,-0.26897 -0.03787,-0.0707 -0.09803,-0.0894 -0.288826,-0.0896 -0.289388,-3.5e-4 -0.556692,-0.0686 -0.63424,-0.16201 -0.0454,-0.0548 -0.04108,-0.0921 0.02157,-0.18774 0.146486,-0.22357 0.302364,-0.71173 0.302364,-0.9468 0,-0.40369 -0.234781,-0.71199 -0.609332,-0.80005 -0.01926,-0.005 -0.04308,-0.007 -0.0705,-0.007 z m 0.01571,0.41319 c 0.07661,3.5e-4 0.138073,0.0162 0.172662,0.0508 0.08878,0.0888 0.09214,0.25147 0.0106,0.50806 -0.07976,0.25116 -0.281394,0.63934 -0.370508,0.7133 -0.04011,0.0333 -0.07293,0.0892 -0.07293,0.12425 0,0.0351 -0.01796,0.0636 -0.03998,0.0636 -0.0497,0 -0.375922,-0.41409 -0.375922,-0.47719 0,-0.0253 -0.06489,-0.10404 -0.144231,-0.17482 -0.170156,-0.15192 -0.159596,-0.28763 0.03764,-0.48487 0.186507,-0.1865 0.552786,-0.32429 0.782626,-0.32313 z m -12.646277,0.13007 c -0.04224,10e-4 -0.09143,0.006 -0.151542,0.0131 -0.157413,0.0175 -0.31245,0.0568 -0.344516,0.0873 -0.06485,0.0618 -0.174982,1.15086 -0.16761,1.65705 0.0044,0.29842 -3.49e-4,0.31193 -0.104789,0.31193 -0.214811,0 -0.955838,0.41604 -2.140102,1.20151 -1.226803,0.81368 -2.226987,1.69306 -2.917036,2.56476 -0.251537,0.31776 -0.615696,0.83464 -0.716286,1.01666 -0.866285,1.56762 -1.142203,2.3949 -1.425713,4.27461 -0.347614,2.30472 -0.469924,3.20776 -0.533965,3.94327 -0.02914,0.3347 -0.0823,0.69959 -0.118149,0.81078 -0.03585,0.11115 -0.05438,0.21956 -0.04125,0.24081 0.01314,0.0212 0.09921,0.0528 0.191346,0.07 0.225274,0.0423 0.277027,-0.0374 0.312651,-0.48234 0.06563,-0.81928 0.215519,-2.15878 0.282688,-2.52613 0.01394,-0.0762 0.03209,-0.19062 0.04034,-0.25417 0.02228,-0.17129 0.200948,-1.36893 0.306782,-2.05643 0.140669,-0.91375 0.354128,-1.7468 0.592003,-2.3106 0.618029,-1.4648 1.169282,-2.30707 2.149128,-3.28357 0.786629,-0.78395 1.216279,-1.12583 2.379822,-1.89343 1.068684,-0.70502 1.421096,-0.89872 1.636462,-0.89942 0.180222,-7e-4 0.308863,-0.0788 0.308863,-0.18782 0,-0.0749 0.02136,-0.0863 0.116166,-0.0625 0.0666,0.0167 0.145433,0.005 0.184847,-0.0279 0.0889,-0.0737 0.08848,-0.22585 -5.41e-4,-0.26003 -0.04969,-0.0191 -0.06932,-0.0968 -0.06932,-0.27421 0,-0.32065 0.09525,-1.18793 0.135382,-1.23283 0.01705,-0.0191 0.150984,0.0815 0.297582,0.22348 0.328804,0.31848 0.670855,0.48049 1.121094,0.53099 0.311173,0.0349 0.825137,7e-4 1.186436,-0.0791 l 0.129429,-0.0286 -0.03041,0.24849 c -0.01675,0.13665 -0.04851,0.33166 -0.07058,0.43333 -0.0668,0.30783 -0.05053,0.3943 0.101084,0.53594 0.13343,0.12463 0.311505,0.17932 0.324115,0.0994 0.003,-0.0191 0.0101,-0.18023 0.01562,-0.35814 0.0056,-0.17792 0.04708,-0.51239 0.09224,-0.74327 0.07751,-0.39621 0.09085,-0.42459 0.238459,-0.5041 h 9.3e-5 c 0.201881,-0.10878 0.219377,-0.30339 0.03484,-0.38747 -0.06683,-0.0304 -0.131912,-0.0449 -0.144685,-0.0322 -0.01276,0.0127 -0.05709,0.005 -0.09847,-0.0171 -0.07722,-0.0413 -0.429988,0.0287 -0.558965,0.11102 -0.05242,0.0334 -0.01954,0.0563 0.138636,0.0958 l 0.207321,0.052 -0.415908,0.13033 c -0.34068,0.10678 -0.497591,0.1301 -0.867736,0.12853 -0.402718,-0.001 -0.480664,-0.0162 -0.716284,-0.13403 -0.180121,-0.0901 -0.311373,-0.19852 -0.411667,-0.34018 -0.242635,-0.34272 -0.294891,-0.41119 -0.477914,-0.40571 z m 9.101311,0.14713 c -0.357047,-0.004 -0.67734,0.0661 -1.038053,0.21625 -0.351854,0.14647 -0.533317,0.31303 -0.588296,0.54018 -0.06005,0.24815 0.189871,0.7292 0.393883,0.75818 0.08523,0.0125 0.200845,0.20735 0.638123,1.07768 0.634151,1.26217 0.818878,1.50212 1.15575,1.50143 0.562395,-10e-4 1.193534,-0.60131 1.60225,-1.52328 0.140944,-0.31793 0.152861,-0.37969 0.137648,-0.71755 -0.04434,-0.98438 -0.67261,-1.61963 -1.784395,-1.80425 -0.184714,-0.0307 -0.354603,-0.0472 -0.51691,-0.0487 z m 0.140445,0.40434 c 0.0443,1.7e-4 0.08923,10e-4 0.134752,0.002 0.805037,0.0328 1.299574,0.2785 1.509922,0.75013 h 9.1e-5 c 0.203523,0.4563 0.180336,0.81959 -0.08601,1.34844 -0.294122,0.58396 -0.748325,1.08331 -1.044465,1.14835 -0.159778,0.0351 -0.327365,-0.0536 -0.327365,-0.17339 0,-0.0455 -0.03232,-0.0952 -0.07184,-0.1104 -0.03952,-0.0151 -0.279114,-0.44446 -0.53243,-0.95393 -0.253316,-0.5095 -0.483507,-0.95389 -0.511488,-0.98761 -0.02798,-0.0337 -0.111039,-0.0612 -0.184579,-0.0612 -0.107334,0 -0.148941,-0.0319 -0.210843,-0.16175 -0.07182,-0.15052 -0.07188,-0.17286 -8.73e-4,-0.32176 0.141658,-0.29707 0.660739,-0.48226 1.325165,-0.47981 z m -5.784345,2.08009 v 9e-5 c -0.03861,7e-5 -0.07687,10e-4 -0.114806,0.004 -0.388268,0.0263 -0.462734,0.0934 -0.319963,0.28873 0.05465,0.0747 0.128271,0.0874 0.519885,0.0898 0.415057,0.002 0.484638,0.0162 0.77116,0.1518 0.676568,0.32021 1.167855,1.06486 1.639531,2.4848 0.247571,0.74528 0.738037,3.41567 0.88696,4.82916 0.02812,0.26686 0.0918,0.77209 0.141437,1.1228 0.05639,0.39844 0.08969,0.88382 0.08882,1.29393 -0.0014,0.61319 -0.05972,1.31051 -0.11427,1.36506 -0.01317,0.0132 -0.08366,-0.0333 -0.156598,-0.10317 -0.254213,-0.24353 -0.622203,-0.0861 -0.45607,0.19523 0.314346,0.53214 0.777806,1.82531 0.771974,2.15391 -0.0072,0.40656 -0.30308,0.76539 -0.63117,0.76539 -0.219148,0 -0.326631,-0.0625 -0.574494,-0.3344 -0.210726,-0.23114 -0.217251,-0.23433 -0.359137,-0.17556 -0.07948,0.0329 -0.158752,0.083 -0.176183,0.11115 -0.01743,0.0282 -0.05559,0.24901 -0.08484,0.49073 -0.06337,0.52359 -0.204663,1.06785 -0.352999,1.35973 l -0.10767,0.21183 -0.144325,-0.10267 c -0.07939,-0.0564 -0.183077,-0.16093 -0.230338,-0.23233 -0.102207,-0.15436 -0.228689,-0.19569 -0.39966,-0.13068 -0.149642,0.0569 -0.163566,0.18578 -0.03285,0.30407 0.09737,0.0881 0.124212,0.20796 0.04657,0.20796 -0.02522,0 -0.08241,0.0771 -0.127084,0.1714 -0.04469,0.0943 -0.225339,0.29226 -0.401466,0.44 -0.679639,0.57008 -1.182323,0.82117 -1.644225,0.82117 -0.533609,0 -0.920815,-0.31213 -1.470751,-1.18536 -0.139695,-0.22183 -0.146607,-0.25159 -0.101907,-0.43901 0.02638,-0.11053 0.0674,-0.47134 0.09117,-0.80176 0.0383,-0.53247 0.03466,-0.60732 -0.03186,-0.65851 -0.04128,-0.0318 -0.120233,-0.0578 -0.175458,-0.0578 -0.08443,0 -0.105076,0.034 -0.129791,0.21435 -0.01618,0.11789 -0.02943,0.38827 -0.02943,0.60077 0,0.21249 -0.01361,0.38639 -0.03024,0.38639 -0.01663,0 -0.100698,-0.0825 -0.186929,-0.18323 -0.316597,-0.36988 -0.616615,-0.31085 -1.361805,0.2678 -0.68317,0.53048 -0.864996,0.65173 -1.309277,0.87315 -0.584318,0.29123 -0.900887,0.29319 -1.163875,0.007 -0.0886,-0.0963 -0.323165,-0.56006 -0.400654,-0.79202 -0.01493,-0.0447 -0.07994,-0.10529 -0.144412,-0.13466 -0.13931,-0.0635 -0.243246,-0.0188 -0.496418,0.2131 -0.09174,0.0841 -0.236133,0.20091 -0.320867,0.25967 -0.08473,0.0588 -0.228722,0.17055 -0.320051,0.24849 -0.317351,0.27076 -0.384539,0.31843 -0.633159,0.4492 -0.259609,0.13657 -0.582547,0.17428 -0.74544,0.0871 -0.14541,-0.0778 -0.272886,-0.4734 -0.370596,-1.15034 -0.05226,-0.36199 -0.09531,-0.704 -0.09531,-0.75996 -5.24e-4,-0.20191 -0.09888,-0.45066 -0.206059,-0.52088 -0.09195,-0.0602 -0.125326,-0.0621 -0.209035,-0.0112 -0.08472,0.0515 -0.09523,0.0882 -0.0705,0.24542 0.05889,0.37435 0.157951,1.07 0.187103,1.31433 0.04109,0.34432 0.186095,0.79622 0.303265,0.94518 0.0534,0.0679 0.202673,0.17696 0.3317,0.24234 0.196512,0.0996 0.27168,0.11402 0.463201,0.0886 0.474755,-0.063 0.763883,-0.22177 1.54738,-0.84969 0.235912,-0.18907 0.436019,-0.3357 0.444697,-0.32592 0.0087,0.01 0.07319,0.13608 0.14333,0.2807 0.149367,0.308 0.285277,0.44746 0.595793,0.61123 0.574077,0.30278 1.263143,0.0478 2.631553,-0.97406 0.373097,-0.2786 0.683502,-0.47774 0.744803,-0.47774 0.08603,0 0.175379,0.11814 0.492447,0.6513 0.662749,1.11451 1.164389,1.55963 1.882957,1.67086 0.302388,0.0468 0.350042,0.0417 0.719896,-0.0787 0.444373,-0.14456 1.027845,-0.50407 1.494757,-0.92108 0.159814,-0.14274 0.326181,-0.25962 0.369694,-0.25976 0.04352,-1.6e-4 0.137172,-0.0306 0.208134,-0.0676 0.07098,-0.0371 0.206143,-0.0812 0.300377,-0.0982 0.277415,-0.05 0.334118,-0.10192 0.492811,-0.4503 0.148404,-0.32581 0.348575,-1.06544 0.348575,-1.28789 0,-0.16747 0.03191,-0.17648 0.263371,-0.0741 0.166992,0.0738 0.282158,0.0893 0.562487,0.0751 0.567234,-0.0287 0.794888,-0.1949 0.958265,-0.69959 0.12158,-0.37558 -0.0065,-1.02706 -0.369427,-1.87971 -0.11382,-0.26735 -0.138982,-0.35959 -0.07879,-0.28882 0.09289,0.10915 0.343478,0.14447 0.398124,0.056 0.01628,-0.0263 0.03584,-0.20829 0.0435,-0.40436 0.0077,-0.19606 0.02888,-0.65796 0.04712,-1.02649 0.01967,-0.39738 0.01327,-0.87695 -0.01579,-1.17842 -0.06486,-0.67279 -0.343622,-2.69157 -0.490009,-3.54874 -0.224807,-1.31643 -0.306559,-1.76706 -0.350918,-1.93431 -0.0246,-0.0928 -0.06333,-0.25912 -0.08611,-0.36971 -0.230828,-1.12054 -0.848857,-2.41911 -1.402965,-2.94789 -0.482052,-0.46003 -1.127827,-0.73557 -1.706863,-0.73435 z m 13.460221,1.15304 c -0.03785,5.2e-4 -0.0796,0.002 -0.125548,0.005 -0.267701,0.0172 -0.410643,0.0584 -0.723869,0.20866 -0.39917,0.19154 -0.7533,0.46661 -0.81656,0.63425 -0.0869,0.2303 0.191687,0.50954 0.895805,0.89788 0.282314,0.15571 0.592007,0.35526 0.688215,0.44344 0.169128,0.15499 0.172728,0.16449 0.107221,0.28819 -0.142025,0.26823 -0.705117,0.60019 -1.111704,0.65536 -0.140988,0.0191 -0.269252,0.0478 -0.285122,0.0636 -0.055,0.055 0.02696,0.17306 0.154613,0.22266 0.385993,0.14998 1.133526,-0.17277 1.546743,-0.66791 0.237619,-0.28473 0.246643,-0.34068 0.09279,-0.57602 -0.09956,-0.15228 -0.580521,-0.48455 -1.019189,-0.70411 -0.400094,-0.20025 -0.653825,-0.38593 -0.653825,-0.47855 0,-0.0908 0.229682,-0.27703 0.576743,-0.46762 0.284217,-0.15607 0.361086,-0.17756 0.646968,-0.18051 0.302392,-0.004 0.325475,-0.01 0.339551,-0.1099 0.02495,-0.17601 -0.04795,-0.23779 -0.312833,-0.23468 z m -3.138535,1.14988 c -0.226147,0 -0.259853,0.0669 -0.349298,0.69318 -0.138884,0.97266 -0.249885,1.44919 -0.356242,1.52942 -0.07708,0.058 -0.0941,0.1089 -0.07663,0.2278 0.01274,0.0867 -0.02616,0.3352 -0.08963,0.57278 -0.06165,0.23079 -0.122828,0.46382 -0.136021,0.5179 -0.02519,0.10329 0.12492,0.2483 0.256966,0.2483 0.121942,0 0.235935,-0.148 0.235935,-0.30625 0,-0.0843 0.03517,-0.31305 0.07807,-0.50834 0.06734,-0.30648 0.09638,-0.36506 0.212557,-0.42871 0.07403,-0.0405 0.249419,-0.14132 0.389732,-0.22393 0.140314,-0.0826 0.271899,-0.15019 0.292435,-0.15019 0.0394,0 0.152615,0.36704 0.202721,0.65717 0.04703,0.27228 0.313091,0.40236 0.491904,0.24054 0.09041,-0.0818 0.08978,-0.0848 -0.143872,-0.71286 -0.08038,-0.21603 -0.149379,-0.44778 -0.153256,-0.51501 -0.0039,-0.0672 -0.04099,-0.16081 -0.0825,-0.20795 -0.163483,-0.18565 -0.278255,-0.48559 -0.5234,-1.36813 -0.07332,-0.26397 -0.07487,-0.26572 -0.249476,-0.26572 z m -2.403107,0.78669 c -0.21838,-0.009 -0.488636,0.15425 -0.693901,0.4409 -0.447027,0.62428 -0.767682,1.81971 -0.678831,2.53083 0.05819,0.46576 0.516522,0.83419 1.11441,0.8959 0.193203,0.02 0.287911,0.004 0.455804,-0.0775 0.162615,-0.0787 0.211928,-0.1279 0.211928,-0.21129 0,-0.14987 -0.06547,-0.1766 -0.227363,-0.0929 -0.268422,0.13881 -0.71002,0.0647 -0.989856,-0.16589 -0.198364,-0.16351 -0.282775,-0.46618 -0.238824,-0.85691 0.09119,-0.81072 0.462324,-1.76954 0.789125,-2.03892 0.102157,-0.0842 0.232473,-0.14812 0.302093,-0.14812 0.06734,0 0.14894,-0.0318 0.181238,-0.0707 0.04855,-0.0585 0.04348,-0.0823 -0.02907,-0.1372 -0.05694,-0.043 -0.123963,-0.0652 -0.19676,-0.0682 z m 2.396522,0.18376 c 0.02541,0 0.04621,0.0226 0.04621,0.0501 0,0.0276 0.06239,0.20582 0.138636,0.39623 0.07625,0.19043 0.138636,0.35465 0.138636,0.36492 0,0.0454 -0.48675,0.29148 -0.499938,0.25271 -0.0081,-0.0238 0.01789,-0.21739 0.05776,-0.43016 0.03987,-0.21278 0.07248,-0.4424 0.07248,-0.51032 0,-0.0679 0.0208,-0.1235 0.04621,-0.1235 z m -10.863604,1.52779 c -0.03483,3.5e-4 -0.07161,0.006 -0.111738,0.0162 -0.162592,0.0408 -0.145356,0.1636 0.04855,0.3465 0.369535,0.34855 0.764844,1.0935 1.081559,2.0383 0.407676,1.21607 0.380735,1.89158 -0.163456,4.10554 -0.18478,0.75177 -0.187012,0.85543 -0.01922,0.87505 0.203055,0.0237 0.265071,-0.0771 0.39226,-0.6374 0.06635,-0.29229 0.163272,-0.7186 0.215359,-0.94735 0.05208,-0.22874 0.133779,-0.63426 0.181505,-0.90112 0.17643,-0.98651 0.05499,-1.89917 -0.405709,-3.04999 -0.28989,-0.72414 -0.486029,-1.10711 -0.759968,-1.48375 -0.193675,-0.26628 -0.308211,-0.36362 -0.459143,-0.36194 z m -0.9459,0.0434 c -0.245532,0 -0.256832,0.0269 -0.407242,0.97045 -0.115305,0.7233 -0.209294,1.55163 -0.262109,2.3106 -0.0799,1.14813 0.05478,3.09786 0.262289,3.79686 0.16201,0.54574 0.552839,1.1178 0.84689,1.2396 0.08349,0.0346 0.140169,0.0921 0.140169,0.14217 0,0.0463 0.02222,0.0977 0.04928,0.11439 0.07013,0.0433 0.366627,-0.0196 0.366627,-0.0778 0,-0.0268 0.03369,-0.11964 0.07482,-0.20625 0.06245,-0.1316 0.06532,-0.18039 0.01743,-0.29604 -0.05901,-0.14244 -0.04528,-0.25269 0.166972,-1.33951 0.03722,-0.19062 0.08625,-0.58574 0.108943,-0.87802 0.05158,-0.66413 0.02201,-1.58169 -0.07139,-2.21701 -0.136663,-0.92952 -0.551983,-2.48073 -0.816921,-3.05098 -0.183304,-0.39452 -0.289938,-0.50851 -0.475748,-0.50851 z m 10.001906,0.23584 c -0.104302,-0.002 -0.253427,0.0462 -0.456705,0.14874 -0.292397,0.14754 -0.351399,0.22469 -0.26283,0.34325 0.05385,0.0721 0.318748,0.0757 0.389101,0.005 0.02879,-0.0288 0.0824,-0.0409 0.119048,-0.0268 0.04905,0.0188 0.07536,0.15341 0.09965,0.50968 0.02832,0.41552 0.01932,0.5339 -0.06355,0.83597 -0.119834,0.43643 -0.119883,0.47596 -8.75e-4,0.51374 0.204929,0.065 0.302676,-0.007 0.386938,-0.28918 0.04394,-0.14658 0.0868,-0.28723 0.09531,-0.31266 h 8.8e-5 c 0.07877,-0.2353 -0.0489,-1.52733 -0.164718,-1.66688 -0.03235,-0.0389 -0.07885,-0.0595 -0.141435,-0.0612 z m -9.887097,0.50355 c 0.111376,0 0.646617,1.98236 0.764391,2.83111 0.127699,0.92031 0.117601,2.18657 -0.02329,2.92191 -0.02925,0.15268 -0.09942,0.53504 -0.155877,0.84969 l -0.102619,0.57205 -0.198207,-0.24856 c -0.41294,-0.51781 -0.519987,-0.89439 -0.630447,-2.21854 -0.08851,-1.06097 -0.0707,-2.13384 0.05,-3.00702 0.206254,-1.49216 0.242618,-1.70064 0.296049,-1.70064 z" />
      <text
         xml:space="preserve"
         style="font-style:normal;font-weight:normal;font-size:24.8407px;line-height:1.25;font-family:sans-serif;fill:#000000;fill-opacity:1;stroke:none;stroke-width:0.129379"
         x="8.74265"
         y="282.18674"
         id="text1083-7"><tspan
           sodipodi:role="line"
           x="8.74265"
           y="282.18674"
           style="font-style:normal;font-variant:normal;font-weight:normal;font-stretch:normal;font-size:24.8407px;font-family:'Liberation Sans';-inkscape-font-specification:'Liberation Sans';stroke-width:0.129379"
           id="tspan1081-5">3</tspan></text>
      <rect
         style="fill:none;stroke:#000000;stroke-width:0.633546;stroke-opacity:1"
         id="rect1164"
         width="70"
         height="140"
         x="4.4408921e-16"
         y="157.00002" />
    </g>
  </g>
</svg>
